<svg xmlns="http://www.w3.org/2000/svg" viewBox="0 0 384 384"><defs><style>.cls-1{isolation:isolate;}.cls-2{fill:#ccc;mix-blend-mode:multiply;}</style></defs><title>ayuda</title><g class="cls-1"><g id="Acción"><g id="Ayuda"><g id="wireframe"><path class="cls-2" d="M192,32A160,160,0,1,0,352,192,160,160,0,0,0,192,32Zm0,296A136,136,0,1,1,328,192,136,136,0,0,1,192,328Z"/><rect class="cls-2" x="176" y="264" width="32" height="32"/><path class="cls-2" d="M194,80a72,72,0,0,0-68.83,45.15L152,152a40,40,0,1,1,72,24,38.71,38.71,0,0,1-12.57,11.09C189.28,199.09,176,222.8,176,248h32v-1.06a36.92,36.92,0,0,1,19.16-32.12A72,72,0,0,0,194,80Z"/></g></g></g></g></svg>