<svg xmlns="http://www.w3.org/2000/svg" viewBox="0 0 384 384"><defs><style>.cls-1{isolation:isolate;}.cls-2{fill:#ccc;mix-blend-mode:multiply;}</style></defs><title>ayuda-light</title><g class="cls-1"><g id="Acción"><g id="Ayuda"><g id="light"><path class="cls-2" d="M192,32A160,160,0,1,0,352,192,160,160,0,0,0,192,32Zm0,304A144,144,0,1,1,336,192,144,144,0,0,1,192,336Z"/><rect class="cls-2" x="184" y="280" width="16" height="16"/><path class="cls-2" d="M264,158.9a72,72,0,0,0-138.81-25.72l12.63,12.63a55.94,55.94,0,1,1,79.69,64.11C197.16,220.31,184,240.83,184,263.67V264h16a44.16,44.16,0,0,1,24.16-39.58A72,72,0,0,0,264,158.9Z"/></g></g></g></g></svg>