<svg xmlns="http://www.w3.org/2000/svg" viewBox="0 0 384 384"><defs><style>.cls-1{isolation:isolate;}.cls-2{fill:#ccc;mix-blend-mode:multiply;}</style></defs><title>ayuda-full</title><g class="cls-1"><g id="Acción"><g id="Ayuda"><path class="cls-2" d="M192,32A160,160,0,1,0,352,192,160,160,0,0,0,192,32Zm16,264H176V264h32Zm51.9-120a72.21,72.21,0,0,1-32.74,38.82A36.92,36.92,0,0,0,208,246.94V248H176c0-25.2,13.28-48.91,35.43-60.9A38.7,38.7,0,0,0,224,176a40,40,0,1,0-72-24l-26.82-26.82A72,72,0,0,1,259.9,176Z"/></g></g></g></svg>