<svg xmlns="http://www.w3.org/2000/svg" viewBox="0 0 384 384"><defs><style>.cls-1{isolation:isolate;}.cls-2{fill:#ccc;mix-blend-mode:multiply;}</style></defs><title>ayuda-full-light</title><g class="cls-1"><g id="Acción"><g id="Ayuda"><path class="cls-2" d="M192,32A160,160,0,1,0,352,192,160,160,0,0,0,192,32Zm8,264H184V280h16Zm51.87-96a72.32,72.32,0,0,1-27.71,24.42A44.16,44.16,0,0,0,200,264H184v-.33c0-22.84,13.17-43.36,33.51-53.74A56.4,56.4,0,0,0,248,158.44a56,56,0,0,0-110.16-12.62l-12.63-12.63A72,72,0,1,1,251.87,200Z"/></g></g></g></svg>