<svg xmlns="http://www.w3.org/2000/svg" viewBox="0 0 384 384"><defs><style>.cls-1{isolation:isolate;}.cls-2{mix-blend-mode:multiply;}.cls-3{fill:#b3b3b3;}</style></defs><title>carro</title><g class="cls-1"><g id="Elementos"><g id="carro"><g class="cls-2"><path class="cls-3" d="M128,288a32,32,0,1,0,32,32A32,32,0,0,0,128,288Zm0,40a8,8,0,1,1,8-8A8,8,0,0,1,128,328Z"/></g><g class="cls-2"><path class="cls-3" d="M296,288a32,32,0,1,0,32,32A32,32,0,0,0,296,288Zm0,40a8,8,0,1,1,8-8A8,8,0,0,1,296,328Z"/></g><g class="cls-2"><path class="cls-3" d="M352,72H96L80,32H16V56H58l62,160-19.31,19.31A16,16,0,0,0,96,246.63V248a16,16,0,0,0,16,16H336V240H128l24-24H320.86a16,16,0,0,0,15.42-11.72l31.11-112A16,16,0,0,0,352,72ZM340,101.07l-24.44,88a4,4,0,0,1-3.85,2.93H136.46L99.26,96H336.18A4,4,0,0,1,340,101.07Z"/></g></g></g></g></svg>