<svg xmlns="http://www.w3.org/2000/svg" viewBox="0 0 384 384"><defs><style>.cls-1{isolation:isolate;}.cls-2{mix-blend-mode:multiply;}.cls-3{fill:#b3b3b3;}</style></defs><title>carro-full</title><g class="cls-1"><g id="Elementos"><g id="carro"><g id="normal"><g class="cls-2"><path class="cls-3" d="M128,288a32,32,0,1,0,32,32A32,32,0,0,0,128,288Z"/></g><g class="cls-2"><path class="cls-3" d="M296,288a32,32,0,1,0,32,32A32,32,0,0,0,296,288Z"/></g><g class="cls-2"><path class="cls-3" d="M352,72H96L80,32H16V56H58l62,160-19.31,19.31A16,16,0,0,0,96,246.63V248a16,16,0,0,0,16,16H336V240H128l24-24H320.86a16,16,0,0,0,15.42-11.72l31.11-112A16,16,0,0,0,352,72Z"/></g></g></g></g></g></svg>