<svg xmlns="http://www.w3.org/2000/svg" viewBox="0 0 384 384"><defs><style>.cls-1{isolation:isolate;}.cls-2{fill:#ccc;mix-blend-mode:multiply;}</style></defs><title>comentarios</title><g class="cls-1"><g id="Elementos"><g id="Comentarios"><g id="wireframe"><path class="cls-2" d="M336,16H48A32,32,0,0,0,16,48V256a32,32,0,0,0,32,32h8v80l80-80H336a32,32,0,0,0,32-32V48A32,32,0,0,0,336,16Zm8,240a8,8,0,0,1-8,8H126.06L80,310.06V264H48a8,8,0,0,1-8-8V48a8,8,0,0,1,8-8H336a8,8,0,0,1,8,8Z"/><rect class="cls-2" x="64" y="64" width="256" height="32"/><rect class="cls-2" x="64" y="120" width="210.82" height="32"/></g></g></g></g></svg>