<svg xmlns="http://www.w3.org/2000/svg" viewBox="0 0 384 384"><defs><style>.cls-1{isolation:isolate;}.cls-2,.cls-4{fill:#ccc;}.cls-2,.cls-3{mix-blend-mode:multiply;}</style></defs><title>candado</title><g class="cls-1"><g id="Elementos"><g id="Candado"><path class="cls-2" d="M296,136H280V104a88,88,0,0,0-176,0v32H88a32,32,0,0,0-32,32V336a32,32,0,0,0,32,32H296a32,32,0,0,0,32-32V168A32,32,0,0,0,296,136ZM144,104a48,48,0,0,1,96,0v32H144ZM304,336a8,8,0,0,1-8,8H88a8,8,0,0,1-8-8V168a8,8,0,0,1,8-8H296a8,8,0,0,1,8,8Z"/><g class="cls-3"><path class="cls-4" d="M192,308a60,60,0,1,1,60-60A60.07,60.07,0,0,1,192,308Zm0-96a36,36,0,1,0,36,36A36,36,0,0,0,192,212Z"/></g></g></g></g></svg>