<svg xmlns="http://www.w3.org/2000/svg" viewBox="0 0 384 384"><defs><style>.cls-1{isolation:isolate;}.cls-2,.cls-4{fill:#ccc;}.cls-2,.cls-3{mix-blend-mode:multiply;}</style></defs><title>candado-light</title><g class="cls-1"><g id="Elementos"><g id="Candado"><g id="wireframe"><path class="cls-2" d="M296,136H280V104a88,88,0,0,0-176,0v32H88a32,32,0,0,0-32,32V336a32,32,0,0,0,32,32H296a32,32,0,0,0,32-32V168A32,32,0,0,0,296,136Zm-64,0H152V104a40,40,0,0,1,80,0ZM120,104a72,72,0,0,1,144,0v32H248V104a56,56,0,0,0-112,0v32H120ZM312,336a16,16,0,0,1-16,16H88a16,16,0,0,1-16-16V168a16,16,0,0,1,16-16H296a16,16,0,0,1,16,16Z"/><g class="cls-3"><path class="cls-4" d="M192,304a56,56,0,1,1,56-56A56.06,56.06,0,0,1,192,304Zm0-96a40,40,0,1,0,40,40A40,40,0,0,0,192,208Z"/></g></g></g></g></g></svg>