<svg xmlns="http://www.w3.org/2000/svg" viewBox="0 0 384 384"><defs><style>.cls-1{isolation:isolate;}.cls-2{fill:#ccc;mix-blend-mode:multiply;}</style></defs><title>calendario-light</title><g class="cls-1"><g id="Elementos"><path class="cls-2" d="M320,48H288V16H272V48H112V16H96V48H64A32,32,0,0,0,32,80V336a32,32,0,0,0,32,32H320a32,32,0,0,0,32-32V80A32,32,0,0,0,320,48ZM64,64H320a16,16,0,0,1,16,16v32H48V80A16,16,0,0,1,64,64ZM320,352H64a16,16,0,0,1-16-16V128H336V336A16,16,0,0,1,320,352Z"/></g></g></svg>