<svg xmlns="http://www.w3.org/2000/svg" viewBox="0 0 384 384"><defs><style>.cls-1{isolation:isolate;}.cls-2{fill:#ccc;mix-blend-mode:multiply;}</style></defs><title>comentarios-light</title><g class="cls-1"><g id="Elementos"><g id="Comentarios"><g id="light"><path class="cls-2" d="M336,16H48A32,32,0,0,0,16,48V256a32,32,0,0,0,32,32h8v80l80-80H336a32,32,0,0,0,32-32V48A32,32,0,0,0,336,16Zm16,240a16,16,0,0,1-16,16H129.37L72,329.37V272H48a16,16,0,0,1-16-16V48A16,16,0,0,1,48,32H336a16,16,0,0,1,16,16Z"/><rect class="cls-2" x="64" y="64" width="256" height="16"/><rect class="cls-2" x="64" y="104" width="216" height="16"/></g></g></g></g></svg>