<svg xmlns="http://www.w3.org/2000/svg" viewBox="0 0 384 384"><defs><style>.cls-1{isolation:isolate;}.cls-2{mix-blend-mode:multiply;}.cls-3{fill:#b3b3b3;}</style></defs><title>carro-light</title><g class="cls-1"><g id="Elementos"><g id="carro"><g class="cls-2"><path class="cls-3" d="M128,288a32,32,0,1,0,32,32A32,32,0,0,0,128,288Zm0,48a16,16,0,1,1,16-16A16,16,0,0,1,128,336Z"/></g><g class="cls-2"><path class="cls-3" d="M296,288a32,32,0,1,0,32,32A32,32,0,0,0,296,288Zm0,48a16,16,0,1,1,16-16A16,16,0,0,1,296,336Z"/></g><g class="cls-2"><path class="cls-3" d="M352,72H80L64,32H16V48H55l65,168L96,240h0A14.06,14.06,0,0,0,106,264H336V248H116.83a2,2,0,0,1-1.41-3.41L144,216H320.86a16,16,0,0,0,15.42-11.72l31.11-112A16,16,0,0,0,352,72ZM320.86,200H131L87.58,88H352Z"/></g></g></g></g></svg>