<svg xmlns="http://www.w3.org/2000/svg" viewBox="0 0 384 384"><defs><style>.cls-1{isolation:isolate;}.cls-2{mix-blend-mode:multiply;}.cls-3{fill:#b3b3b3;}</style></defs><title>compartir-light</title><g class="cls-1"><g id="Acción"><g id="Compartir" class="cls-2"><path class="cls-3" d="M312,264a48,48,0,0,0-38.76,19.68L117.9,206a48.33,48.33,0,0,0,0-28l155.35-77.67A48.07,48.07,0,1,0,266.1,86L110.76,163.68a48,48,0,1,0,0,56.64L266.1,298A48,48,0,1,0,312,264ZM289.37,49.37a32,32,0,1,1,0,45.25A31.79,31.79,0,0,1,289.37,49.37ZM94.63,214.63a32,32,0,1,1,0-45.25A31.79,31.79,0,0,1,94.63,214.63Zm240,120a32,32,0,1,1,0-45.25A31.79,31.79,0,0,1,334.63,334.63Z"/></g></g></g></svg>