<svg xmlns="http://www.w3.org/2000/svg" viewBox="0 0 384 384"><defs><style>.cls-1{isolation:isolate;}.cls-2{fill:#999;mix-blend-mode:multiply;}</style></defs><title>doc</title><g class="cls-1"><g id="DOC"><g id="Normal"><path class="cls-2" d="M352,144H328V80L264,16H88A32,32,0,0,0,56,48V336a32,32,0,0,0,32,32H296a32,32,0,0,0,32-32v-8h24a16,16,0,0,0,16-16V160A16,16,0,0,0,352,144ZM264,48l32,32H276a12,12,0,0,1-12-12Zm40,284a12,12,0,0,1-12,12H92a12,12,0,0,1-12-12V52A12,12,0,0,1,92,40H240V72a32,32,0,0,0,32,32h32v40H112a16,16,0,0,0-16,16V312a16,16,0,0,0,16,16H304Zm40-36a8,8,0,0,1-8,8H128a8,8,0,0,1-8-8V176a8,8,0,0,1,8-8H336a8,8,0,0,1,8,8Z"/><path class="cls-2" d="M240,184H224a16,16,0,0,0-16,16v72a16,16,0,0,0,16,16h16a16,16,0,0,0,16-16V200A16,16,0,0,0,240,184Zm0,80a8,8,0,0,1-16,0V208a8,8,0,0,1,16,0Z"/><path class="cls-2" d="M176,184H144V288h32a16,16,0,0,0,16-16V200A16,16,0,0,0,176,184Zm0,80a8,8,0,0,1-8,8h-8V200h8a8,8,0,0,1,8,8Z"/><path class="cls-2" d="M304,256v8a8,8,0,0,1-16,0V208a8,8,0,0,1,16,0v8h16V200a16,16,0,0,0-16-16H288a16,16,0,0,0-16,16v72a16,16,0,0,0,16,16h16a16,16,0,0,0,16-16V256Z"/></g></g></g></svg>