<svg xmlns="http://www.w3.org/2000/svg" viewBox="0 0 384 384"><defs><style>.cls-1{isolation:isolate;}.cls-2{fill:#999;mix-blend-mode:multiply;}</style></defs><title>doc-light</title><g class="cls-1"><g id="DOC"><g id="Light"><g id="Ready"><path class="cls-2" d="M360,160H336V80L272,16H96A32,32,0,0,0,64,48V336a32,32,0,0,0,32,32H304a32,32,0,0,0,32-32v-8h24a16,16,0,0,0,16-16V176A16,16,0,0,0,360,160ZM272,40l40,40H288a16,16,0,0,1-16-16Zm48,296a16,16,0,0,1-16,16H96a16,16,0,0,1-16-16V48A16,16,0,0,1,96,32H256V64a32,32,0,0,0,32,32h32v64H136a16,16,0,0,0-16,16V312a16,16,0,0,0,16,16H320Zm40-32a8,8,0,0,1-8,8H144a8,8,0,0,1-8-8V184a8,8,0,0,1,8-8H352a8,8,0,0,1,8,8Z"/><path class="cls-2" d="M256,192H240a16,16,0,0,0-16,16v72a16,16,0,0,0,16,16h16a16,16,0,0,0,16-16V208A16,16,0,0,0,256,192Zm0,80a8,8,0,0,1-16,0V216a8,8,0,0,1,16,0Z"/><path class="cls-2" d="M192,192H160V296h32a16,16,0,0,0,16-16V208A16,16,0,0,0,192,192Zm0,80a8,8,0,0,1-8,8h-8V208h8a8,8,0,0,1,8,8Z"/><path class="cls-2" d="M320,264v8a8,8,0,0,1-16,0V216a8,8,0,0,1,16,0v8h16V208a16,16,0,0,0-16-16H304a16,16,0,0,0-16,16v72a16,16,0,0,0,16,16h16a16,16,0,0,0,16-16V264Z"/></g></g></g></g></svg>