<svg xmlns="http://www.w3.org/2000/svg" viewBox="0 0 384 384"><defs><style>.cls-1{isolation:isolate;}.cls-2{mix-blend-mode:multiply;}.cls-3{fill:#b3b3b3;}</style></defs><title>compartir</title><g class="cls-1"><g id="Acción"><g id="Compartir" class="cls-2"><path class="cls-3" d="M312,272a39.81,39.81,0,0,0-28.75,12.21L111.49,198.33c0,1,1.08-5.91,0-12.66,0,0,171.76-85.87,171.75-85.88a40,40,0,1,0-10.73-21.46L100.75,164.21a40,40,0,1,0,0,55.58l171.76,85.88a40,40,0,0,0,67.77,34.61C365.56,315,347.31,272,312,272ZM300.69,60.69a16,16,0,1,1,0,22.63A16,16,0,0,1,300.69,60.69ZM83.31,203.31a16,16,0,1,1,0-22.63A16,16,0,0,1,83.31,203.31Zm240,120a16,16,0,1,1,0-22.63A16,16,0,0,1,323.31,323.31Z"/></g></g></g></svg>