<svg xmlns="http://www.w3.org/2000/svg" viewBox="0 0 384 384"><defs><style>.cls-1{isolation:isolate;}.cls-2{fill:#ccc;mix-blend-mode:multiply;}</style></defs><title>eliminar-light</title><g class="cls-1"><g id="Acción"><g id="Eliminar"><g id="Light"><path class="cls-2" d="M72,336a32,32,0,0,0,32,32H280a32,32,0,0,0,32-32V96H72ZM88,112H296V336a16,16,0,0,1-16,16H104a16,16,0,0,1-16-16Z"/><path class="cls-2" d="M320,32H246a16,16,0,0,0-16-16H152a16,16,0,0,0-16,16H64A32,32,0,0,0,32,64v8H352V64A32,32,0,0,0,320,32ZM50.15,56A16,16,0,0,1,64,48h88V32h78V48h90a16,16,0,0,1,13.85,8Z"/></g></g><rect class="cls-2" x="184" y="136" width="16" height="192"/><rect class="cls-2" x="128" y="136" width="16" height="192"/><rect class="cls-2" x="240" y="136" width="16" height="192"/></g></g></svg>