<svg xmlns="http://www.w3.org/2000/svg" viewBox="0 0 384 384"><defs><style>.cls-1{isolation:isolate;}.cls-2{fill:#ccc;mix-blend-mode:multiply;}</style></defs><title>entrar</title><g class="cls-1"><g id="Acción"><g id="Entrar"><g id="Normal"><polygon class="cls-2" points="135.37 248.57 158 271.2 214.57 214.63 237.2 192 214.57 169.37 158 112.8 135.37 135.43 175.94 176 32 176 32 208 175.94 208 135.37 248.57"/><path class="cls-2" d="M296,32H88A32,32,0,0,0,56,64v40H80V64a8,8,0,0,1,8-8H296a8,8,0,0,1,8,8V320a8,8,0,0,1-8,8H88a8,8,0,0,1-8-8V280H56v40a32,32,0,0,0,32,32H296a32,32,0,0,0,32-32V64A32,32,0,0,0,296,32Z"/></g></g></g></g></svg>