<svg xmlns="http://www.w3.org/2000/svg" viewBox="0 0 384 384"><defs><style>.cls-1{isolation:isolate;}.cls-2{fill:#ccc;mix-blend-mode:multiply;}</style></defs><title>eliminar</title><g class="cls-1"><g id="Acción"><g id="Eliminar"><g id="Normal"><path class="cls-2" d="M72,336a32,32,0,0,0,32,32H280a32,32,0,0,0,32-32V96H72ZM96,120H288V336a8,8,0,0,1-8,8H104a8,8,0,0,1-8-8Z"/><path class="cls-2" d="M320,32H246a16,16,0,0,0-16-16H152a16,16,0,0,0-16,16H64A32,32,0,0,0,32,64v8H352V64A32,32,0,0,0,320,32ZM222,48H160V40h62Z"/><rect class="cls-2" x="180" y="136" width="24" height="192"/><rect class="cls-2" x="120" y="136" width="24" height="192"/><rect class="cls-2" x="240" y="136" width="24" height="192"/></g></g></g></g></svg>