<svg xmlns="http://www.w3.org/2000/svg" viewBox="0 0 384 384"><defs><style>.cls-1{isolation:isolate;}.cls-2{fill:#ccc;mix-blend-mode:multiply;}</style></defs><title>favorito</title><g class="cls-1"><g id="Acción"><g id="Favorito"><path class="cls-2" d="M260.57,32h-1.14A91.18,91.18,0,0,0,192,61.69,91.18,91.18,0,0,0,124.57,32h-1.14A91.43,91.43,0,0,0,57.22,186.48L192,328,326.78,186.48A91.43,91.43,0,0,0,260.57,32ZM309.4,169.93,192,293.2,74.6,169.93A67.43,67.43,0,0,1,123.43,56h1.14A67.62,67.62,0,0,1,174.3,77.9L192,97.22,209.7,77.9A67.62,67.62,0,0,1,259.43,56h1.14A67.43,67.43,0,0,1,309.4,169.93Z"/></g></g></g></svg>