<svg xmlns="http://www.w3.org/2000/svg" viewBox="0 0 384 384"><defs><style>.cls-1{isolation:isolate;}.cls-2{fill:#ccc;mix-blend-mode:multiply;}</style></defs><title>favorito-light</title><g class="cls-1"><g id="Acción"><g id="Favorito"><path id="light" class="cls-2" d="M260.57,32h-1.14A91.18,91.18,0,0,0,192,61.69,91.18,91.18,0,0,0,124.57,32h-1.14A91.43,91.43,0,0,0,57.22,186.48L192,328,326.78,186.48A91.43,91.43,0,0,0,260.57,32Zm54.62,143.45L192,304.8,68.81,175.45A75.43,75.43,0,0,1,123.43,48h1.14A75.64,75.64,0,0,1,180.2,72.5L192,85.37,203.8,72.5A75.64,75.64,0,0,1,259.43,48h1.14a75.43,75.43,0,0,1,54.62,127.45Z"/></g></g></g></svg>