<?xml version="1.0" encoding="utf-8"?>
<!-- Generator: Adobe Illustrator 21.1.0, SVG Export Plug-In . SVG Version: 6.00 Build 0)  -->
<svg version="1.1" id="Capa_1" xmlns="http://www.w3.org/2000/svg" xmlns:xlink="http://www.w3.org/1999/xlink" x="0px" y="0px"
	 viewBox="0 0 384 384" style="enable-background:new 0 0 384 384;" xml:space="preserve">
<style type="text/css">
	.st0{fill:#CCCCCC;}
</style>
<title>entrar-light</title>
<g>
	<g id="Acción">
		<g id="Entrar">
			<g id="Light">
				<path class="st0" d="M147.3,124.5L136,135.8l48.3,48.2H32v16h152.3l-48.7,48.7l11.3,11.3l68-68L147.3,124.5z"/>
				<path class="st0" d="M296,32H88c-17.7,0-32,14.3-32,32v40h16V64c0-8.8,7.2-16,16-16h208c8.8,0,16,7.2,16,16v256
					c0,8.8-7.2,16-16,16H88c-8.8,0-16-7.2-16-16v-40H56v40c0,17.7,14.3,32,32,32h208c17.7,0,32-14.3,32-32V64
					C328,46.3,313.7,32,296,32z"/>
			</g>
		</g>
	</g>
</g>
</svg>
