<svg xmlns="http://www.w3.org/2000/svg" viewBox="0 0 384 384"><defs><style>.cls-1{isolation:isolate;}.cls-2{fill:#ccc;mix-blend-mode:multiply;}</style></defs><title>imprimir</title><g class="cls-1"><g id="Acción"><g id="Imprimir"><path class="cls-2" d="M312,184h0a16,16,0,0,0,0,32h0a16,16,0,0,0,0-32Z"/><path class="cls-2" d="M336,144H296V32H88V144H48a32,32,0,0,0-32,32V296a32,32,0,0,0,32,32H89v40H297V328h39a32,32,0,0,0,32-32V176A32,32,0,0,0,336,144ZM112,56H272v88H112ZM273,344H113V271H273Zm71-48a8,8,0,0,1-8,8H297V247H89v57H48a8,8,0,0,1-8-8V176a8,8,0,0,1,8-8H336a8,8,0,0,1,8,8Z"/></g></g></g></svg>