<svg xmlns="http://www.w3.org/2000/svg" viewBox="0 0 384 384"><defs><style>.cls-1{isolation:isolate;}.cls-2{fill:#ccc;mix-blend-mode:multiply;}</style></defs><title>imprimir-light</title><g class="cls-1"><g id="Acción"><g id="Imprimir"><path class="cls-2" d="M336,144H296V32H88V144H48a32,32,0,0,0-32,32V296a32,32,0,0,0,32,32H89v40H297V328h39a32,32,0,0,0,32-32V176A32,32,0,0,0,336,144ZM104,48H280v96H104ZM280,351H106V264H280Zm72-55a16,16,0,0,1-16,16H297V247H89v65H48a16,16,0,0,1-16-16V176a16,16,0,0,1,16-16H336a16,16,0,0,1,16,16Z"/><circle class="cls-2" cx="324" cy="188" r="12"/></g></g></g></svg>