<svg xmlns="http://www.w3.org/2000/svg" viewBox="0 0 384 384"><defs><style>.cls-1{isolation:isolate;}.cls-2{fill:#ccc;mix-blend-mode:multiply;}</style></defs><title>imprimir-full</title><g class="cls-1"><g id="Acción"><g id="Imprimir"><rect class="cls-2" x="88" y="32" width="208" height="88"/><path class="cls-2" d="M336,144H48a32,32,0,0,0-32,32V296a32,32,0,0,0,32,32H89v40H297V328h39a32,32,0,0,0,32-32V176A32,32,0,0,0,336,144ZM273,344H113V271H273Zm51-136a20,20,0,1,1,20-20A20,20,0,0,1,324,208Z"/></g></g></g></svg>