<svg xmlns="http://www.w3.org/2000/svg" viewBox="0 0 384 384"><defs><style>.cls-1{isolation:isolate;}.cls-2{fill:#999;mix-blend-mode:multiply;}</style></defs><title>imagen</title><g class="cls-1"><g id="Tipos_de_archivo" data-name="Tipos de archivo"><path class="cls-2" d="M336,56H48A32,32,0,0,0,16,88V296a32,32,0,0,0,32,32H336a32,32,0,0,0,32-32V88A32,32,0,0,0,336,56ZM48,304a8,8,0,0,1-8-8V275.93l80.5-101.37L223.29,304Zm191.38-18.33,56.44-71.07L344,275.26V296a8,8,0,0,1-8,8H253.94L120.5,136,40,237.33V88a8,8,0,0,1,8-8H336a8,8,0,0,1,8,8V236.67L295.82,176l-71.76,90.37Z"/><path class="cls-2" d="M228,104a36,36,0,1,0,36,36A36,36,0,0,0,228,104Zm0,48a12,12,0,1,1,12-12A12,12,0,0,1,228,152Z"/></g></g></svg>