<svg xmlns="http://www.w3.org/2000/svg" viewBox="0 0 384 384"><defs><style>.cls-1{isolation:isolate;}.cls-2{fill:#999;mix-blend-mode:multiply;}</style></defs><title>imagen-full</title><g class="cls-1"><g id="Tipos_de_archivo" data-name="Tipos de archivo"><path class="cls-2" d="M336,56H48A32,32,0,0,0,16,88V296a32,32,0,0,0,32,32H336a32,32,0,0,0,32-32V88A32,32,0,0,0,336,56ZM228,104a36,36,0,1,1-36,36A36,36,0,0,1,228,104ZM344,296a8,8,0,0,1-8,8H48a8,8,0,0,1-8-8V237.33L120.5,136,224.06,266.37,295.82,176,344,236.67Z"/></g></g></svg>