<svg xmlns="http://www.w3.org/2000/svg" viewBox="0 0 384 384"><defs><style>.cls-1{isolation:isolate;}.cls-2{mix-blend-mode:multiply;}.cls-3{fill:#ccc;}</style></defs><title>mail</title><g class="cls-1"><g id="Elementos"><g id="Mail"><g class="cls-2"><path class="cls-3" d="M336,56H48A32,32,0,0,0,16,88V296a32,32,0,0,0,32,32H336a32,32,0,0,0,32-32V88A32,32,0,0,0,336,56ZM48,80H336a8,8,0,0,1,8,8v2.67L192,192,40,90.67V88A8,8,0,0,1,48,80ZM336,304H48a8,8,0,0,1-8-8V122.67L192,224,344,122.67V296A8,8,0,0,1,336,304Z"/></g></g></g></g></svg>