<svg id="Elementos" xmlns="http://www.w3.org/2000/svg" viewBox="0 0 384 384"><defs><style>.cls-1{fill:#b3b3b3;}</style></defs><title>marker-light</title><g id="marker"><path class="cls-1" d="M192,16A128,128,0,0,0,64,144c0,112,128,224,128,224S320,256,320,144A128,128,0,0,0,192,16Zm51.64,271.82A536.18,536.18,0,0,1,192,346.09a535,535,0,0,1-51.27-57.78c-17.86-23.44-32.05-46.56-42.18-68.71C86.24,192.67,80,167.23,80,144a112,112,0,0,1,224,0c0,23.15-6.2,48.49-18.42,75.31C275.52,241.39,261.41,264.44,243.64,287.82Z"/><path class="cls-1" d="M192,88.5A55.5,55.5,0,1,0,247.5,144,55.5,55.5,0,0,0,192,88.5Zm0,95A39.5,39.5,0,1,1,231.5,144,39.54,39.54,0,0,1,192,183.5Z"/></g></svg>