<svg id="Elementos" xmlns="http://www.w3.org/2000/svg" viewBox="0 0 384 384"><title>link</title><g id="Link"><path d="M333.42,84.52,299.48,50.58a32,32,0,0,0-45.25,0l-67.88,67.88a32,32,0,0,0,0,45.25l8.49,8.49L172.2,194.83l-8.49-8.49a32,32,0,0,0-45.25,0L50.58,254.23a32,32,0,0,0,0,45.25l33.94,33.94a32,32,0,0,0,45.25,0l67.88-67.88a32,32,0,0,0,0-45.25l-8.49-8.49,22.63-22.63,8.49,8.49a32,32,0,0,0,45.25,0l67.88-67.88A32,32,0,0,0,333.42,84.52ZM180.69,237.25a8,8,0,0,1,0,11.31L112.8,316.45a8,8,0,0,1-11.31,0L67.55,282.51a8,8,0,0,1,0-11.31l67.88-67.88a8,8,0,0,1,11.31,0l8.49,8.49-28.28,28.28a12,12,0,0,0,17,17l28.28-28.28ZM316.45,112.8l-67.88,67.88a8,8,0,0,1-11.31,0l-8.49-8.49,28.28-28.28a12,12,0,0,0-17-17L211.8,155.23l-8.49-8.49a8,8,0,0,1,0-11.31L271.2,67.55a8,8,0,0,1,11.31,0l33.94,33.94A8,8,0,0,1,316.45,112.8Z"/></g></svg>