<svg xmlns="http://www.w3.org/2000/svg" viewBox="0 0 384 384"><defs><style>.cls-1{isolation:isolate;}.cls-2{fill:#ccc;mix-blend-mode:multiply;}</style></defs><title>like-light</title><g class="cls-1"><g id="Acción"><path class="cls-2" d="M32,152V328H80V152ZM64,312H48V168H64Z"/><path class="cls-2" d="M368,171.26c-.4-19.69-16.91-35.26-36.61-35.26H241.89l13.64-27.27a48,48,0,0,0,.86-41.12l-5.32-11.86-.74-1.11a24,24,0,0,0-22.61-10.55A24.7,24.7,0,0,0,214.38,50l-99.2,85A32,32,0,0,0,104,159.36V296a32,32,0,0,0,32,32H291.34c19.82,0,36.67-16.21,36.66-36a35.93,35.93,0,0,0-1.22-9.27,36,36,0,0,0,16-40,36,36,0,0,0,14.3-44.9A35.89,35.89,0,0,0,368,171.26ZM331.52,192H324a20,20,0,0,1,20,20.73c-.39,10.84-9.62,19.27-20.47,19.27H308a20,20,0,0,1,20,20.73c-.39,10.84-9.62,19.27-20.47,19.27H292a20,20,0,0,1,20,20.73c-.39,10.84-9.62,19.27-20.47,19.27H136a16,16,0,0,1-16-16V159.36a16,16,0,0,1,5.59-12.15l99.56-85.34A8,8,0,0,1,237,63.51l4.78,10.65a32,32,0,0,1-.57,27.42L216,152H332a20,20,0,0,1,20,20.73C351.6,183.57,342.37,192,331.52,192Z"/></g></g></svg>