<svg xmlns="http://www.w3.org/2000/svg" viewBox="0 0 384 384"><defs><style>.cls-1{isolation:isolate;}.cls-2{fill:#ccc;mix-blend-mode:multiply;}</style></defs><title>like-full</title><g class="cls-1"><g id="Acción"><rect class="cls-2" x="56" y="152" width="40" height="160"/><path class="cls-2" d="M352,171.27c-.39-10.84-9.62-19.27-20.47-19.27H216l24.84-49.69a32,32,0,0,0,0-28.62l-4.26-8.52a8,8,0,0,0-12.36-2.5l-93,79.75A32,32,0,0,0,120,166.72V280a32,32,0,0,0,32,32H291.52c10.84,0,20.08-8.43,20.47-19.27A20,20,0,0,0,292,272h15.52c10.84,0,20.08-8.43,20.47-19.27A20,20,0,0,0,308,232h15.52c10.84,0,20.08-8.43,20.47-19.27A20,20,0,0,0,324,192h8A20,20,0,0,0,352,171.27Z"/></g></g></svg>