<svg xmlns="http://www.w3.org/2000/svg" viewBox="0 0 384 384"><defs><style>.cls-1{isolation:isolate;}.cls-2{mix-blend-mode:multiply;}.cls-3{fill:#ccc;}</style></defs><title>mail-light</title><g class="cls-1"><g id="Elementos"><g id="Mail"><g class="cls-2"><path class="cls-3" d="M336,56H48A32,32,0,0,0,16,88V296a32,32,0,0,0,32,32H336a32,32,0,0,0,32-32V88A32,32,0,0,0,336,56ZM48,72H336a16,16,0,0,1,15.78,13.48L192,192,32.22,85.48A16,16,0,0,1,48,72ZM336,312H48a16,16,0,0,1-16-16V109.33L192,216,352,109.33V296A16,16,0,0,1,336,312Z"/></g></g></g></g></svg>