<svg id="Elementos" xmlns="http://www.w3.org/2000/svg" viewBox="0 0 384 384"><defs><style>.cls-1{fill:#b3b3b3;}</style></defs><title>marker</title><g id="marker"><path class="cls-1" d="M192,16A128,128,0,0,0,64,144c0,112,128,224,128,224S320,256,320,144A128,128,0,0,0,192,16Zm0,318.83a527.1,527.1,0,0,1-45.45-52.08C119.84,247.55,88,194.91,88,144a104,104,0,0,1,208,0c0,50.91-31.84,103.55-58.55,138.75A527,527,0,0,1,192,334.83Z"/><path class="cls-1" d="M192,88.5l-1.82,0a55.5,55.5,0,0,0,1.82,111l1.82,0A55.5,55.5,0,0,0,192,88.5Zm31.48,56.55a31.7,31.7,0,0,1-30.43,30.43l-1.05,0a31.5,31.5,0,0,1-1.05-63l1.05,0h0a31.5,31.5,0,0,1,31.48,32.55Z"/></g></svg>