<svg id="Elementos" xmlns="http://www.w3.org/2000/svg" viewBox="0 0 384 384"><title>link-light</title><g id="Link"><path d="M333.42,84.52,299.48,50.58a32,32,0,0,0-45.25,0l-67.88,67.88a32,32,0,0,0,0,45.25L197.66,175,175,197.66l-11.31-11.31a32,32,0,0,0-45.25,0L50.58,254.23a32,32,0,0,0,0,45.25l33.94,33.94a32,32,0,0,0,45.25,0l67.88-67.88a32,32,0,0,0,0-45.25L186.34,209,209,186.34l11.31,11.31a32,32,0,0,0,45.25,0l67.88-67.88A32,32,0,0,0,333.42,84.52ZM186.34,231.6a16,16,0,0,1,0,22.63l-67.88,67.88a16,16,0,0,1-22.63,0L61.89,288.17a16,16,0,0,1,0-22.63l67.88-67.88a16,16,0,0,1,22.63,0L163.72,209l-33.94,33.94a8,8,0,0,0,11.31,11.31L175,220.28ZM322.11,118.46l-67.88,67.88a16,16,0,0,1-22.63,0L220.28,175l33.94-33.94a8,8,0,0,0-11.31-11.31L209,163.72,197.66,152.4a16,16,0,0,1,0-22.63l67.88-67.88a16,16,0,0,1,22.63,0l33.94,33.94A16,16,0,0,1,322.11,118.46Z"/></g></svg>