<svg xmlns="http://www.w3.org/2000/svg" viewBox="0 0 384 384"><defs><style>.cls-1{isolation:isolate;}.cls-2{mix-blend-mode:multiply;}.cls-3{fill:#ccc;}</style></defs><title>lista</title><g class="cls-1"><g id="Elementos"><g id="Lista"><g class="cls-2"><path class="cls-3" d="M296,32H264V16H120V32H88A32,32,0,0,0,56,64V336a32,32,0,0,0,32,32H296a32,32,0,0,0,32-32V64A32,32,0,0,0,296,32ZM144,40h88v8H144ZM304,336a8,8,0,0,1-8,8H88a8,8,0,0,1-8-8V64a8,8,0,0,1,8-8h32V72H264V56h32a8,8,0,0,1,8,8Z"/></g><g class="cls-2"><rect class="cls-3" x="96" y="128" width="192" height="24"/></g><g class="cls-2"><rect class="cls-3" x="96" y="192" width="192" height="24"/></g><g class="cls-2"><rect class="cls-3" x="96" y="256" width="136" height="24"/></g></g></g></g></svg>