<svg xmlns="http://www.w3.org/2000/svg" viewBox="0 0 384 384"><defs><style>.cls-1{isolation:isolate;}.cls-2{mix-blend-mode:multiply;}.cls-3{fill:#ccc;}</style></defs><title>lista-light</title><g class="cls-1"><g id="Elementos"><g id="Lista"><g class="cls-2"><path class="cls-3" d="M296,32H256V16H128V32H88A32,32,0,0,0,56,64V336a32,32,0,0,0,32,32H296a32,32,0,0,0,32-32V64A32,32,0,0,0,296,32ZM144,32h96V48H144ZM312,336a16,16,0,0,1-16,16H88a16,16,0,0,1-16-16V64A16,16,0,0,1,88,48h40V64H256V48h40a16,16,0,0,1,16,16Z"/></g><g class="cls-2"><rect class="cls-3" x="96" y="120" width="192" height="16"/></g><g class="cls-2"><rect class="cls-3" x="96" y="184" width="192" height="16"/></g><g class="cls-2"><rect class="cls-3" x="96" y="248" width="136" height="16"/></g></g></g></g></svg>