<svg xmlns="http://www.w3.org/2000/svg" viewBox="0 0 384 384"><defs><style>.cls-1{isolation:isolate;}.cls-2{fill:#b3b3b3;mix-blend-mode:multiply;}</style></defs><title>regalo</title><g class="cls-1"><g id="Elementos"><g id="regalo"><path class="cls-2" d="M336,56H287.32A48,48,0,0,0,192,63.77h0A48,48,0,0,0,96.68,56H48A32,32,0,0,0,16,88v88H32V352H352V176h16V88A32,32,0,0,0,336,56ZM240,40a24,24,0,1,1-24,24A24,24,0,0,1,240,40Zm-96,0a24,24,0,1,1-24,24A24,24,0,0,1,144,40Zm0,288H56V176h88Zm72,0H168V176h48Zm112,0H240V176h88Zm16-176H40V96A16,16,0,0,1,56,80H98.74A48,48,0,0,0,144,112h0L130.4,125.63l17,17L192.5,97.47l45.13,45.13,17-17L240.95,112a48,48,0,0,0,44.31-32H328a16,16,0,0,1,16,16Z"/></g></g></g></svg>