<svg xmlns="http://www.w3.org/2000/svg" viewBox="0 0 384 384"><defs><style>.cls-1{isolation:isolate;}.cls-2{fill:#b3b3b3;mix-blend-mode:multiply;}</style></defs><title>regalo-light</title><g class="cls-1"><g id="Elementos"><g id="regalo"><path class="cls-2" d="M336,56H287.32A48,48,0,0,0,192,64a48.67,48.67,0,0,0,.25,4.94l-.47-.47c.14-1.47.21-3,.21-4.47a48,48,0,0,0-95.32-8H48A32,32,0,0,0,16,88v88H32V352H352V176h16V88A32,32,0,0,0,336,56ZM240,32a32,32,0,1,1-32,32A32,32,0,0,1,240,32Zm-96,0a32,32,0,1,1-32,32A32,32,0,0,1,144,32Zm0,304H48V176h96Zm80,0H160V176h64Zm112,0H240V176h96Zm16-176H32V88A16,16,0,0,1,48,72H96.68a47.91,47.91,0,0,0,53.41,39.6l-16.85,16.85,11.31,11.31,48-48,48,48,11.31-11.31-16.71-16.71A48.67,48.67,0,0,0,240,112a48,48,0,0,0,47.32-40H336a16,16,0,0,1,16,16Z"/></g></g></g></svg>