<svg xmlns="http://www.w3.org/2000/svg" viewBox="0 0 384 384"><defs><style>.cls-1{isolation:isolate;}.cls-2,.cls-3{fill:#999;}.cls-2{mix-blend-mode:multiply;}</style></defs><title>pdf-2</title><g class="cls-1"><g id="Tipos_de_archivo" data-name="Tipos de archivo"><path class="cls-2" d="M318.63,110.63,233.37,25.37A32,32,0,0,0,210.75,16H88A32,32,0,0,0,56,48V336a32,32,0,0,0,32,32H296a32,32,0,0,0,32-32V133.25A32,32,0,0,0,318.63,110.63ZM312,337a16,16,0,0,1-16,16H88a16,16,0,0,1-16-16V47A16,16,0,0,1,88,31H201.33a16,16,0,0,1,11.37,4.74l94.67,95.58A16,16,0,0,1,312,142.58Z"/><path class="cls-3" d="M267.49,212.81c-13.11-5-30.61-6.79-52-5.21a134.3,134.3,0,0,1-33.41-39c2.18-15.38,3.89-35.18.86-47.87-6.39-26.8-43-19.45-38.38,8.1,2.91,17.24,12.77,33.51,19.2,43.49a163,163,0,0,1-16,50.74c-12.83,5.24-27,8.86-37.69,20.48-13.47,14.69-2.19,33.62,13.38,33.62,18.16,0,30.32-27.17,37-40.36A148.92,148.92,0,0,1,210,225.59c13.3,9.73,25.84,16.77,44.85,21.45a25.09,25.09,0,0,0,6,.76C281.78,247.79,287.54,220.52,267.49,212.81ZM123.9,259.39c-1.1.66-3.67-.92-.91-3.94A37.67,37.67,0,0,1,135.12,247C131.89,252.28,128.29,256.76,123.9,259.39Zm67.62-49.56a165.83,165.83,0,0,0-20.73,4.66,179.91,179.91,0,0,0,6.66-20.85A152.78,152.78,0,0,0,191.52,209.83Zm-25.75-85c.95,4,1.31,9.76,1.1,16.89a68.66,68.66,0,0,1-5-15.81C161,120.79,164.61,119.92,165.78,124.82Zm93.32,105.1A107.38,107.38,0,0,1,245,225.46a68.27,68.27,0,0,1,16.19,3.79C263.73,230.24,260.77,230.34,259.09,229.92Z"/></g></g></svg>