<svg xmlns="http://www.w3.org/2000/svg" viewBox="0 0 384 384"><defs><style>.cls-1{isolation:isolate;}.cls-2{fill:#333;mix-blend-mode:multiply;}</style></defs><title>ppt-light</title><g class="cls-1"><g id="PPT"><g id="Light"><g id="Ready"><path class="cls-2" d="M360,160H336V80L272,16H96A32,32,0,0,0,64,48V336a32,32,0,0,0,32,32H304a32,32,0,0,0,32-32v-8h24a16,16,0,0,0,16-16V176A16,16,0,0,0,360,160ZM272,40l40,40H288a16,16,0,0,1-16-16Zm48,296a16,16,0,0,1-16,16H96a16,16,0,0,1-16-16V48A16,16,0,0,1,96,32H256V64a32,32,0,0,0,32,32h32v64H136a16,16,0,0,0-16,16V312a16,16,0,0,0,16,16H320Zm40-32a8,8,0,0,1-8,8H144a8,8,0,0,1-8-8V184a8,8,0,0,1,8-8H352a8,8,0,0,1,8,8Z"/><path class="cls-2" d="M192,192H160V296h16V256h16a16,16,0,0,0,16-16V208A16,16,0,0,0,192,192Zm0,40a8,8,0,0,1-8,8h-8V208h8a8,8,0,0,1,8,8Z"/><path class="cls-2" d="M256,192H224V296h16V256h16a16,16,0,0,0,16-16V208A16,16,0,0,0,256,192Zm0,40a8,8,0,0,1-8,8h-8V208h8a8,8,0,0,1,8,8Z"/><polygon class="cls-2" points="336 192 288 192 288 208 304 208 304 296 320 296 320 208 336 208 336 192"/></g></g></g></g></svg>