<svg xmlns="http://www.w3.org/2000/svg" viewBox="0 0 384 384"><defs><style>.cls-1{isolation:isolate;}.cls-2{fill:#333;mix-blend-mode:multiply;}</style></defs><title>ppt</title><g class="cls-1"><g id="PPT"><g id="Normal"><path class="cls-2" d="M352,144H328V80L264,16H88A32,32,0,0,0,56,48V336a32,32,0,0,0,32,32H296a32,32,0,0,0,32-32v-8h24a16,16,0,0,0,16-16V160A16,16,0,0,0,352,144ZM264,48l32,32H276a12,12,0,0,1-12-12Zm40,284a12,12,0,0,1-12,12H92a12,12,0,0,1-12-12V52A12,12,0,0,1,92,40H240V72a32,32,0,0,0,32,32h32v40H112a16,16,0,0,0-16,16V312a16,16,0,0,0,16,16H304Zm40-36a8,8,0,0,1-8,8H128a8,8,0,0,1-8-8V176a8,8,0,0,1,8-8H336a8,8,0,0,1,8,8Z"/><path class="cls-2" d="M176,184H144V288h16V248h16a16,16,0,0,0,16-16V200A16,16,0,0,0,176,184Zm0,40a8,8,0,0,1-8,8h-8V200h8a8,8,0,0,1,8,8Z"/><path class="cls-2" d="M240,184H208V288h16V248h16a16,16,0,0,0,16-16V200A16,16,0,0,0,240,184Zm0,40a8,8,0,0,1-8,8h-8V200h8a8,8,0,0,1,8,8Z"/><polygon class="cls-2" points="320 184 272 184 272 200 288 200 288 288 304 288 304 200 320 200 320 184"/></g></g></g></svg>