<svg xmlns="http://www.w3.org/2000/svg" viewBox="0 0 384 384"><defs><style>.cls-1{isolation:isolate;}.cls-2{fill:#ccc;mix-blend-mode:multiply;}</style></defs><title>salir-light</title><g class="cls-1"><g id="Acción"><g id="light"><path class="cls-2" d="M352.9,192l-79-79-11.31,11.31L322.28,184H148v16H322.25l-59.73,59.73L273.84,271Zm-22.9.27v-.54l.27.27Z"/><path class="cls-2" d="M312,280v40a16,16,0,0,1-16,16H88a16,16,0,0,1-16-16V64A16,16,0,0,1,88,48H296a16,16,0,0,1,16,16v40h16V64a32,32,0,0,0-32-32H88A32,32,0,0,0,56,64V320a32,32,0,0,0,32,32H296a32,32,0,0,0,32-32V280Z"/></g></g></g></svg>