<svg xmlns="http://www.w3.org/2000/svg" viewBox="0 0 384 384"><defs><style>.cls-1{fill:#ccc;}</style></defs><title>vista-light</title><g id="Elementos"><path class="cls-1" d="M192,78.35A193,193,0,0,0,16,192a193.11,193.11,0,0,0,352,0A193,193,0,0,0,192,78.35ZM33.7,192a176.85,176.85,0,0,1,105.57-89.62,104,104,0,0,0,0,179.23A176.85,176.85,0,0,1,33.7,192Zm70.3,0a88,88,0,1,1,88,88A88,88,0,0,1,104,192Zm140.73,89.62a104,104,0,0,0,0-179.23A176.85,176.85,0,0,1,350.3,192,176.85,176.85,0,0,1,244.73,281.62Z"/><circle class="cls-1" cx="192" cy="192" r="48"/></g></svg>