<svg xmlns="http://www.w3.org/2000/svg" viewBox="0 0 384 384"><defs><style>.cls-1{isolation:isolate;}.cls-2{fill:#ccc;mix-blend-mode:multiply;}</style></defs><title>salir</title><g class="cls-1"><g id="Acción"><g id="Normal"><polygon class="cls-2" points="274 112.8 251.37 135.43 291.94 176 148 176 148 208 291.94 208 251.37 248.57 274 271.2 353.2 192 274 112.8"/><path class="cls-2" d="M304,280v40a8,8,0,0,1-8,8H88a8,8,0,0,1-8-8V64a8,8,0,0,1,8-8H296a8,8,0,0,1,8,8v40h24V64a32,32,0,0,0-32-32H88A32,32,0,0,0,56,64V320a32,32,0,0,0,32,32H296a32,32,0,0,0,32-32V280Z"/></g></g></g></svg>