<svg xmlns="http://www.w3.org/2000/svg" viewBox="0 0 384 384"><defs><style>.cls-1{isolation:isolate;}.cls-2{fill:#ccc;mix-blend-mode:multiply;}</style></defs><title>telefono-light</title><g class="cls-1"><g id="Elementos"><g id="Telefono"><path class="cls-2" d="M338,254a207.86,207.86,0,0,1-60.63-9,13.93,13.93,0,0,0-13.89,3.51l-18,18a226.72,226.72,0,0,1-128-128l18-18A13.93,13.93,0,0,0,139,106.63,207.86,207.86,0,0,1,130,46a14,14,0,0,0-14-14H64A32,32,0,0,0,32,64h0c0,159.06,128.94,288,288,288h0a32,32,0,0,0,32-32V268A14,14,0,0,0,338,254Zm-2,66a16,16,0,0,1-15.92,16,270.22,270.22,0,0,1-192.41-79.67A270.22,270.22,0,0,1,48,63.92,16,16,0,0,1,64,48h42.21a8,8,0,0,1,8,7.72A223.8,223.8,0,0,0,122,105.65a8,8,0,0,1-2.06,7.74L98.81,134.57l3.82,9.75A242.19,242.19,0,0,0,239.68,281.37l9.75,3.82L270.61,264a8,8,0,0,1,7.74-2.06,223.8,223.8,0,0,0,49.93,7.84,8,8,0,0,1,7.72,8Z"/></g></g></g></svg>