<svg xmlns="http://www.w3.org/2000/svg" viewBox="0 0 384 384"><defs><style>.cls-1{isolation:isolate;}.cls-2{fill:#ccc;mix-blend-mode:multiply;}</style></defs><title>telefono</title><g class="cls-1"><g id="Elementos"><g id="Telefono"><path class="cls-2" d="M338,254a207.86,207.86,0,0,1-60.63-9,13.93,13.93,0,0,0-13.89,3.51l-18,18a226.72,226.72,0,0,1-128-128l18-18A13.93,13.93,0,0,0,139,106.63,207.86,207.86,0,0,1,130,46a14,14,0,0,0-14-14H64A32,32,0,0,0,32,64h0c0,159.06,128.94,288,288,288h0a32,32,0,0,0,32-32V268A14,14,0,0,0,338,254Zm-10,66a8,8,0,0,1-8,8,262.27,262.27,0,0,1-186.72-77.32A262.27,262.27,0,0,1,56,64a8,8,0,0,1,8-8H98.67a8,8,0,0,1,8,7.47,231.63,231.63,0,0,0,6.52,39.93,8,8,0,0,1-2.1,7.59L89.45,132.61l5.74,14.63A250.19,250.19,0,0,0,236.76,288.82l14.63,5.74L273,272.93a8,8,0,0,1,7.59-2.1,231.63,231.63,0,0,0,39.93,6.52,8,8,0,0,1,7.47,8Z"/></g></g></g></svg>