<svg xmlns="http://www.w3.org/2000/svg" viewBox="0 0 384 384"><defs><style>.cls-1{isolation:isolate;}.cls-2{fill:#b3b3b3;mix-blend-mode:multiply;}</style></defs><title>rss</title><g class="cls-1"><g id="Elementos"><g id="rss"><path class="cls-2" d="M48,16q-16.2,0-32,1.59V65.88A274.73,274.73,0,0,1,48,64c150.22,0,272,121.78,272,272a274.73,274.73,0,0,1-1.88,32h48.29Q368,352.21,368,336C368,159.27,224.73,16,48,16Z"/><path class="cls-2" d="M48,112a225.87,225.87,0,0,0-32,2.29v48.63A176.11,176.11,0,0,1,224,336a177,177,0,0,1-2.91,32h48.63A225.87,225.87,0,0,0,272,336C272,212.29,171.71,112,48,112Z"/><path class="cls-2" d="M48,208a128.24,128.24,0,0,0-32,4v50.64A80,80,0,0,1,121.32,368H172A128.11,128.11,0,0,0,48,208Z"/><circle class="cls-2" cx="48" cy="336" r="32"/></g></g></g></svg>