<svg xmlns="http://www.w3.org/2000/svg" viewBox="0 0 384 384"><defs><style>.cls-1{isolation:isolate;}.cls-2{mix-blend-mode:multiply;}.cls-3{fill:#ccc;}</style></defs><title>usuario-light</title><g class="cls-1"><g id="Elementos"><g id="usuario"><g class="cls-2"><path class="cls-3" d="M192,208a88,88,0,1,0-88-88A88,88,0,0,0,192,208Zm0-160a72,72,0,1,1-72,72A72.08,72.08,0,0,1,192,48Z"/></g><g class="cls-2"><path class="cls-3" d="M311.47,263h0a319.64,319.64,0,0,0-238.94,0h0C47.79,273,32,294.29,32,317.71V352H352V317.71C352,294.29,336.21,273,311.47,263ZM336,336H48V317.71c0-16.74,12-32.38,30.51-39.85a303.63,303.63,0,0,1,227,0C324,285.32,336,301,336,317.71Z"/></g></g></g></g></svg>