<svg xmlns="http://www.w3.org/2000/svg" viewBox="0 0 384 384"><defs><style>.cls-1{isolation:isolate;}.cls-2{fill:#ccc;mix-blend-mode:multiply;}</style></defs><title>telefono-full</title><g class="cls-1"><g id="Elementos"><g id="Telefono"><path class="cls-2" d="M338,254a207.86,207.86,0,0,1-60.63-9,13.93,13.93,0,0,0-13.89,3.51l-18,18a226.72,226.72,0,0,1-128-128l18-18A13.93,13.93,0,0,0,139,106.63,207.86,207.86,0,0,1,130,46a14,14,0,0,0-14-14H64A32,32,0,0,0,32,64h0c0,159.06,128.94,288,288,288h0a32,32,0,0,0,32-32V268A14,14,0,0,0,338,254Z"/></g></g></g></svg>