<svg xmlns="http://www.w3.org/2000/svg" viewBox="0 0 384 384"><defs><style>.cls-1{isolation:isolate;}.cls-2{mix-blend-mode:multiply;}.cls-3{fill:#ccc;}</style></defs><title>usuario</title><g class="cls-1"><g id="Elementos"><g id="usuario"><g class="cls-2"><path class="cls-3" d="M192,208a88,88,0,1,0-88-88A88,88,0,0,0,192,208Zm0-152a64,64,0,1,1-64,64A64.07,64.07,0,0,1,192,56Z"/></g><g class="cls-2"><path class="cls-3" d="M311.47,263h0a319.64,319.64,0,0,0-238.94,0h0C47.79,273,32,294.29,32,317.71V352H352V317.71C352,294.29,336.21,273,311.47,263ZM328,328H56V317.71c0-13.46,10-26.19,25.5-32.43a295.64,295.64,0,0,1,221,0c15.49,6.24,25.5,19,25.5,32.43Z"/></g></g></g></g></svg>