<svg xmlns="http://www.w3.org/2000/svg" viewBox="0 0 384 384"><defs><style>.cls-1{fill:#ccc;}</style></defs><title>vista</title><g id="Elementos"><path class="cls-1" d="M192,78.35A193,193,0,0,0,16,192a193.11,193.11,0,0,0,352,0A193,193,0,0,0,192,78.35Zm-93.66,175A168.2,168.2,0,0,1,42.7,192a168.2,168.2,0,0,1,55.65-61.36,111.8,111.8,0,0,0,0,122.73ZM192,280a88,88,0,1,1,88-88A88,88,0,0,1,192,280Zm93.66-26.64a111.8,111.8,0,0,0,0-122.73A168.2,168.2,0,0,1,341.3,192,168.2,168.2,0,0,1,285.66,253.36Z"/><circle class="cls-1" cx="192" cy="192" r="48"/></g></svg>