<svg xmlns="http://www.w3.org/2000/svg" viewBox="0 0 384 384"><defs><style>.cls-1{isolation:isolate;}.cls-2{fill:#333;mix-blend-mode:multiply;}</style></defs><title>xls</title><g class="cls-1"><g id="XLS"><g id="Normal"><path class="cls-2" d="M352,144H328V80L264,16H88A32,32,0,0,0,56,48V336a32,32,0,0,0,32,32H296a32,32,0,0,0,32-32v-8h24a16,16,0,0,0,16-16V160A16,16,0,0,0,352,144ZM264,48l32,32H276a12,12,0,0,1-12-12Zm40,284a12,12,0,0,1-12,12H92a12,12,0,0,1-12-12V52A12,12,0,0,1,92,40H240V72a32,32,0,0,0,32,32h32v40H112a16,16,0,0,0-16,16V312a16,16,0,0,0,16,16H304Zm40-36a8,8,0,0,1-8,8H128a8,8,0,0,1-8-8V176a8,8,0,0,1,8-8H336a8,8,0,0,1,8,8Z"/><polygon class="cls-2" points="192 184 176 184 168 210 160 184 144 184 160 236 144 288 160 288 168 262 176 288 192 288 176 236 192 184"/><polygon class="cls-2" points="224 272 224 184 208 184 208 272 208 288 224 288 256 288 256 272 224 272"/><path class="cls-2" d="M320,216V200a16,16,0,0,0-16-16H288a16,16,0,0,0-16,16v22.11a16,16,0,0,0,8.84,14.31l18.73,9.37a8,8,0,0,1,4.42,7.16V264a8,8,0,0,1-8,8h0a8,8,0,0,1-8-8v-8H272v16a16,16,0,0,0,16,16h16a16,16,0,0,0,16-16V249.89a16,16,0,0,0-8.84-14.31l-18.73-9.37a8,8,0,0,1-4.42-7.16V208a8,8,0,0,1,8-8h0a8,8,0,0,1,8,8v8Z"/></g></g></g></svg>