<svg xmlns="http://www.w3.org/2000/svg" viewBox="0 0 384 384"><defs><style>.cls-1{isolation:isolate;}.cls-2{fill:#999;mix-blend-mode:multiply;}</style></defs><title>zip-light</title><g class="cls-1"><g id="Tipos_de_archivo" data-name="Tipos de archivo"><g id="Imagen"><g id="light"><path class="cls-2" d="M336,56H48A32,32,0,0,0,16,88V293.28C16,315.85,31.78,328,48,328H336c16.16,0,32-12,32-35.38V88A32,32,0,0,0,336,56ZM48,312a16,16,0,0,1-16-16V273.14l88.5-111.44L239.86,312Zm304-16a16,16,0,0,1-16,16H260.29l-26.74-33.68,62.27-76.59L352,272.47Zm0-49.26L295.82,176l-72,90L120.5,136,32,247.41V88A16,16,0,0,1,48,72H336a16,16,0,0,1,16,16Z"/><path class="cls-2" d="M228,104a36,36,0,1,0,36,36A36,36,0,0,0,228,104Zm0,56a20,20,0,1,1,20-20A20,20,0,0,1,228,160Z"/></g></g></g></g></svg>