<svg xmlns="http://www.w3.org/2000/svg" viewBox="0 0 384 384"><defs><style>.cls-1{isolation:isolate;}.cls-2{fill:#999;mix-blend-mode:multiply;}</style></defs><title>zip-full</title><g class="cls-1"><g id="Tipos_de_archivo" data-name="Tipos de archivo"><g id="Zip"><rect class="cls-2" x="248" y="232" width="16" height="8"/><path class="cls-2" d="M336,104H200L144,56H48A32,32,0,0,0,16,88V296a32,32,0,0,0,32,32H336a32,32,0,0,0,32-32V136A32,32,0,0,0,336,104Zm-48,40H264v24h24v24H264v16h8a16,16,0,0,1,16,16v72a16,16,0,0,1-16,16H240a16,16,0,0,1-16-16V224a16,16,0,0,1,16-16V192h24V168H240V144h24V120h24Z"/><rect class="cls-2" x="248" y="264" width="16" height="24"/></g></g></g></svg>