<svg xmlns="http://www.w3.org/2000/svg" viewBox="0 0 384 384"><defs><style>.cls-1{isolation:isolate;}.cls-2{fill:#999;mix-blend-mode:multiply;}</style></defs><title>zip</title><g class="cls-1"><g id="Tipos_de_archivo" data-name="Tipos de archivo"><g id="Zip"><path class="cls-2" d="M336,104H200L144,56H48A32,32,0,0,0,16,88V296a32,32,0,0,0,32,32H336a32,32,0,0,0,32-32V136A32,32,0,0,0,336,104Zm8,192a8,8,0,0,1-8,8H48a8,8,0,0,1-8-8V88a8,8,0,0,1,8-8h87.12l56,48H256v24h24V128h56a8,8,0,0,1,8,8Z"/><rect class="cls-2" x="232" y="152" width="24" height="24"/><path class="cls-2" d="M272,184H240a16,16,0,0,0-16,16v72a16,16,0,0,0,16,16h32a16,16,0,0,0,16-16V200A16,16,0,0,0,272,184Zm-8,80H248V240h16Zm0-48H248v-8h16Z"/></g></g></g></svg>