<?xml version="1.0" encoding="utf-8"?>
<!-- Generator: Adobe Illustrator 24.1.2, SVG Export Plug-In . SVG Version: 6.00 Build 0)  -->
<svg version="1.1" id="Capa_1" xmlns="http://www.w3.org/2000/svg" xmlns:xlink="http://www.w3.org/1999/xlink" x="0px" y="0px"
	 viewBox="0 0 328.8 152.1" style="enable-background:new 0 0 328.8 152.1;" xml:space="preserve">
<style type="text/css">
	.st0{fill:#FFFFFF;}
</style>
<g id="nuevo">
	<g>
		<path class="st0" d="M127.7,90.6c14-18.9,15.2-45.3,1.1-65.7c-9.6-13.9-24.4-22.1-40-23.8c9.7,5.9,18.7,14.3,26.1,25
			C129.8,47.5,134,72.1,127.7,90.6z"/>
		<path class="st0" d="M114.9,39.2C105.5,17.6,83.2,3.4,58.5,5.5C41.7,6.9,27.2,15.6,17.9,28.2c9.9-5.4,21.8-9.1,34.7-10.2
			C78.5,15.9,102,24.6,114.9,39.2z"/>
		<path class="st0" d="M63.9,24.7C40.6,22,17.1,34.2,6.5,56.6c-7.2,15.3-6.9,32.2-0.6,46.5c0.3-11.3,3-23.4,8.5-35.1
			C25.5,44.5,44.8,28.5,63.9,24.7z"/>
		<path class="st0" d="M25.9,61.5c-14,18.9-15.2,45.3-1.1,65.7c9.6,13.9,24.4,22.1,40,23.8c-9.7-5.9-18.7-14.3-26.1-25
			C23.8,104.7,19.6,80,25.9,61.5z"/>
		<path class="st0" d="M38.7,112.9c9.3,21.6,31.6,35.8,56.3,33.8c16.8-1.4,31.3-10.1,40.6-22.7c-9.9,5.4-21.8,9.1-34.7,10.2
			C75,136.3,51.6,127.6,38.7,112.9z"/>
		<path class="st0" d="M89.7,127.5c23.3,2.7,46.8-9.5,57.4-31.9c7.2-15.3,6.9-32.2,0.6-46.5c-0.3,11.3-3,23.4-8.5,35.1
			C128.1,107.7,108.8,123.6,89.7,127.5z"/>
	</g>
	<g>
		<path class="st0" d="M195.6,39.1V18.7l-8.4,15.5h-2.5l-8.5-15.5v20.4h-4.5V10.7h4.8l9.4,17.3l9.4-17.3h4.8v28.4H195.6z"/>
		<path class="st0" d="M210.5,39.5c-1,0-2-0.2-2.8-0.5c-0.9-0.3-1.6-0.8-2.2-1.4c-0.6-0.6-1.1-1.3-1.5-2.1s-0.5-1.7-0.5-2.6
			c0-1,0.2-1.9,0.6-2.7c0.4-0.8,1-1.5,1.8-2.1c0.8-0.6,1.7-1,2.8-1.4c1.1-0.3,2.3-0.5,3.6-0.5c1,0,2,0.1,2.9,0.3
			c1,0.2,1.8,0.4,2.6,0.7v-1.4c0-1.5-0.4-2.7-1.3-3.6s-2.1-1.3-3.8-1.3c-1.1,0-2.2,0.2-3.3,0.6c-1.1,0.4-2.2,1-3.3,1.8l-1.4-2.8
			c2.7-1.8,5.5-2.7,8.4-2.7c2.9,0,5.1,0.7,6.7,2.2c1.6,1.5,2.4,3.6,2.4,6.3v7.5c0,0.9,0.4,1.4,1.2,1.4v3.8c-0.4,0.1-0.8,0.1-1.1,0.2
			c-0.3,0-0.6,0-0.9,0c-0.9,0-1.5-0.2-2-0.6c-0.5-0.4-0.8-1-0.9-1.6l-0.1-1.3c-0.9,1.2-2.1,2.2-3.5,2.8
			C213.6,39.2,212.1,39.5,210.5,39.5z M211.7,36.3c1.1,0,2.1-0.2,3-0.6s1.7-0.9,2.2-1.6c0.6-0.5,0.8-1,0.8-1.5v-2.8
			c-0.7-0.3-1.5-0.5-2.4-0.7c-0.8-0.2-1.7-0.2-2.5-0.2c-1.6,0-2.9,0.3-3.9,1c-1,0.7-1.5,1.6-1.5,2.7c0,1,0.4,1.9,1.2,2.6
			C209.5,35.9,210.5,36.3,211.7,36.3z"/>
		<path class="st0" d="M226.7,9.9h4.4v23.1c0,0.8,0.2,1.4,0.6,1.8s1,0.7,1.7,0.7c0.3,0,0.6-0.1,1-0.2c0.4-0.1,0.8-0.2,1.1-0.4
			l0.6,3.4c-0.6,0.3-1.4,0.5-2.3,0.7c-0.9,0.2-1.7,0.3-2.4,0.3c-1.5,0-2.7-0.4-3.5-1.2s-1.3-2-1.3-3.5V9.9z"/>
		<path class="st0" d="M238,9.9h4.4v23.1c0,0.8,0.2,1.4,0.6,1.8s1,0.7,1.7,0.7c0.3,0,0.6-0.1,1-0.2c0.4-0.1,0.8-0.2,1.1-0.4l0.6,3.4
			c-0.6,0.3-1.4,0.5-2.3,0.7c-0.9,0.2-1.7,0.3-2.4,0.3c-1.5,0-2.7-0.4-3.5-1.2s-1.3-2-1.3-3.5V9.9z"/>
		<path class="st0" d="M172.9,93.4V48.9h19c2.1,0,4.1,0.4,5.9,1.3s3.3,2,4.6,3.4c1.3,1.4,2.3,3,3,4.8c0.7,1.8,1.1,3.6,1.1,5.5
			c0,2-0.3,3.8-1,5.6s-1.7,3.4-2.9,4.8s-2.7,2.5-4.5,3.4c-1.8,0.8-3.7,1.3-5.8,1.3h-9v14.4H172.9z M183.1,70.1h8.4
			c1.2,0,2.3-0.5,3.1-1.6c0.9-1,1.3-2.6,1.3-4.6c0-1-0.1-1.9-0.4-2.7c-0.3-0.8-0.6-1.4-1.1-1.9c-0.5-0.5-1-0.9-1.6-1.1
			c-0.6-0.2-1.2-0.3-1.8-0.3h-8V70.1z"/>
		<path class="st0" d="M209.7,47.6h10v34c0,2.5,1.1,3.8,3.2,3.8c0.5,0,1.1-0.1,1.7-0.2c0.6-0.1,1.2-0.4,1.7-0.7l1.3,7.5
			c-1.3,0.6-2.7,1-4.3,1.4s-3.2,0.5-4.6,0.5c-2.9,0-5.1-0.8-6.6-2.3c-1.5-1.5-2.3-3.7-2.3-6.5V47.6z"/>
		<path class="st0" d="M238.9,94c-1.6,0-3.1-0.3-4.5-0.8c-1.4-0.5-2.6-1.3-3.6-2.2c-1-0.9-1.8-2-2.4-3.3c-0.6-1.3-0.9-2.7-0.9-4.2
			c0-1.6,0.3-3.1,1-4.5c0.7-1.3,1.7-2.5,2.9-3.4c1.3-1,2.7-1.7,4.5-2.3c1.7-0.5,3.6-0.8,5.7-0.8c1.4,0,2.7,0.1,4,0.3
			c1.3,0.2,2.4,0.6,3.4,1v-1.5c0-3.8-2.2-5.7-6.6-5.7c-1.8,0-3.5,0.3-5.1,0.9c-1.6,0.6-3.3,1.5-5.1,2.7l-2.9-6.3
			c2.2-1.4,4.4-2.5,6.8-3.2c2.3-0.7,4.8-1.1,7.5-1.1c5,0,8.8,1.2,11.5,3.5c2.7,2.3,4.1,5.8,4.1,10.3v8.5c0,1,0.2,1.7,0.5,2.1
			c0.3,0.4,0.9,0.6,1.7,0.7v8.5c-0.9,0.2-1.7,0.3-2.4,0.4c-0.7,0.1-1.4,0.1-1.9,0.1c-1.9,0-3.3-0.4-4.3-1.1c-1-0.7-1.6-1.8-1.8-3.1
			l-0.2-1.5c-1.5,1.9-3.2,3.3-5.2,4.3C243.3,93.5,241.2,94,238.9,94z M241.9,86.8c1.1,0,2.1-0.2,3.2-0.6c1-0.4,1.9-0.9,2.5-1.5
			c1-0.8,1.4-1.5,1.4-2.4v-3.1c-0.9-0.3-1.8-0.6-2.9-0.8c-1-0.2-2-0.3-2.9-0.3c-1.8,0-3.4,0.4-4.5,1.3c-1.2,0.8-1.8,1.9-1.8,3.3
			c0,1.2,0.5,2.2,1.4,3C239.3,86.4,240.4,86.8,241.9,86.8z"/>
		<path class="st0" d="M263.1,87.4l16.8-19.9H264v-7h26.4v6l-16.7,19.9h17.1v7h-27.7V87.4z"/>
		<path class="st0" d="M304.1,94c-1.6,0-3.1-0.3-4.5-0.8c-1.4-0.5-2.6-1.3-3.6-2.2c-1-0.9-1.8-2-2.4-3.3c-0.6-1.3-0.9-2.7-0.9-4.2
			c0-1.6,0.3-3.1,1-4.5c0.7-1.3,1.7-2.5,2.9-3.4c1.3-1,2.7-1.7,4.5-2.3c1.7-0.5,3.6-0.8,5.7-0.8c1.4,0,2.7,0.1,4,0.3
			c1.3,0.2,2.4,0.6,3.4,1v-1.5c0-3.8-2.2-5.7-6.6-5.7c-1.8,0-3.5,0.3-5.1,0.9c-1.6,0.6-3.3,1.5-5.1,2.7l-2.9-6.3
			c2.2-1.4,4.4-2.5,6.8-3.2c2.3-0.7,4.8-1.1,7.5-1.1c5,0,8.8,1.2,11.5,3.5c2.7,2.3,4.1,5.8,4.1,10.3v8.5c0,1,0.2,1.7,0.5,2.1
			c0.3,0.4,0.9,0.6,1.7,0.7v8.5c-0.9,0.2-1.7,0.3-2.4,0.4c-0.7,0.1-1.4,0.1-1.9,0.1c-1.9,0-3.3-0.4-4.3-1.1c-1-0.7-1.6-1.8-1.8-3.1
			l-0.2-1.5c-1.5,1.9-3.2,3.3-5.2,4.3C308.5,93.5,306.4,94,304.1,94z M307.1,86.8c1.1,0,2.1-0.2,3.2-0.6c1-0.4,1.9-0.9,2.5-1.5
			c1-0.8,1.4-1.5,1.4-2.4v-3.1c-0.9-0.3-1.8-0.6-2.9-0.8c-1-0.2-2-0.3-2.9-0.3c-1.8,0-3.4,0.4-4.5,1.3c-1.2,0.8-1.8,1.9-1.8,3.3
			c0,1.2,0.5,2.2,1.4,3C304.5,86.4,305.6,86.8,307.1,86.8z"/>
		<path class="st0" d="M182,140.1c-1.8,0-3.4-0.3-4.9-1c-1.5-0.7-2.8-1.6-3.9-2.8c-1.1-1.2-1.9-2.6-2.5-4.2
			c-0.6-1.6-0.9-3.4-0.9-5.3c0-1.9,0.3-3.6,0.8-5.3c0.6-1.6,1.3-3.1,2.4-4.2c1-1.2,2.2-2.1,3.6-2.8s2.9-1,4.6-1
			c1.8,0,3.4,0.4,4.9,1.3c1.5,0.9,2.6,2,3.4,3.4v-14.3h7.9v27c0,0.8,0.1,1.3,0.4,1.6c0.2,0.3,0.7,0.5,1.3,0.6v6.6
			c-0.7,0.2-1.3,0.3-1.9,0.3c-0.5,0-1,0.1-1.5,0.1c-1.4,0-2.5-0.3-3.3-0.9c-0.9-0.6-1.3-1.4-1.5-2.5l-0.1-1.3
			c-0.9,1.6-2.2,2.8-3.7,3.6C185.4,139.7,183.8,140.1,182,140.1z M184.1,133.5c1.1,0,2.1-0.3,3.1-1c1-0.6,1.8-1.5,2.3-2.6v-5.4
			c-0.5-1.3-1.3-2.4-2.4-3.2c-1.1-0.8-2.2-1.3-3.4-1.3c-0.9,0-1.6,0.2-2.3,0.6c-0.7,0.4-1.3,0.9-1.8,1.5c-0.5,0.6-0.9,1.3-1.2,2.2
			c-0.3,0.8-0.4,1.7-0.4,2.6c0,1,0.2,1.8,0.5,2.7s0.7,1.5,1.3,2.1s1.2,1,2,1.4C182.4,133.3,183.2,133.5,184.1,133.5z"/>
		<path class="st0" d="M214.8,140.1c-2.2,0-4.1-0.4-5.8-1.1c-1.7-0.7-3.2-1.7-4.4-2.9c-1.2-1.2-2.1-2.6-2.7-4.2s-0.9-3.3-0.9-5
			c0-1.9,0.3-3.6,0.9-5.3c0.6-1.7,1.5-3.1,2.7-4.3c1.2-1.2,2.6-2.2,4.3-2.9s3.7-1.1,5.9-1.1c2.2,0,4.1,0.4,5.8,1.1s3.1,1.7,4.3,2.9
			c1.2,1.2,2.1,2.6,2.7,4.2c0.6,1.6,0.9,3.3,0.9,5.1c0,0.5,0,0.9,0,1.4c0,0.4-0.1,0.8-0.1,1.2h-19.1c0.1,1.7,0.8,3.1,1.9,4
			c1.1,0.9,2.4,1.4,3.9,1.4c1.1,0,2.3-0.3,3.3-0.8c1.1-0.6,1.8-1.3,2.1-2.3l6.7,1.9c-1,2-2.6,3.7-4.7,5
			C220.3,139.5,217.7,140.1,214.8,140.1z M220.2,124.3c-0.2-1.6-0.8-2.9-1.8-3.9c-1-0.9-2.3-1.4-3.8-1.4c-1.5,0-2.8,0.5-3.8,1.4
			c-1,1-1.6,2.3-1.7,3.9H220.2z"/>
		<path class="st0" d="M231,103.8h7.9v26.7c0,2,0.8,2.9,2.5,2.9c0.4,0,0.8-0.1,1.3-0.2c0.5-0.1,0.9-0.3,1.3-0.5l1,5.9
			c-1,0.5-2.1,0.8-3.4,1.1c-1.3,0.3-2.5,0.4-3.6,0.4c-2.3,0-4-0.6-5.2-1.8c-1.2-1.2-1.8-2.9-1.8-5.1V103.8z"/>
		<path class="st0" d="M277.1,115c-0.1-0.1-0.4-0.4-1-0.7c-0.6-0.4-1.3-0.7-2.2-1.1s-1.8-0.7-2.9-1s-2.1-0.4-3.1-0.4
			c-2.9,0-4.3,1-4.3,2.9c0,0.6,0.2,1.1,0.5,1.5c0.3,0.4,0.8,0.7,1.4,1.1c0.6,0.3,1.4,0.6,2.3,0.9c0.9,0.3,2,0.6,3.2,0.9
			c1.7,0.5,3.2,1,4.5,1.5c1.3,0.5,2.5,1.2,3.4,2c0.9,0.8,1.7,1.8,2.2,2.9s0.8,2.5,0.8,4.1c0,2-0.4,3.6-1.1,5s-1.7,2.5-2.9,3.3
			c-1.2,0.8-2.6,1.4-4.2,1.8c-1.6,0.4-3.2,0.6-4.9,0.6c-1.3,0-2.6-0.1-3.9-0.3c-1.3-0.2-2.7-0.5-3.9-0.9c-1.3-0.4-2.5-0.8-3.7-1.4
			c-1.2-0.5-2.3-1.1-3.3-1.8l3.5-7c0.1,0.2,0.6,0.5,1.3,0.9c0.7,0.5,1.6,0.9,2.7,1.4c1.1,0.5,2.3,0.9,3.6,1.2c1.3,0.4,2.6,0.5,4,0.5
			c2.8,0,4.3-0.9,4.3-2.6c0-0.7-0.2-1.2-0.6-1.6c-0.4-0.4-1-0.8-1.8-1.2c-0.8-0.3-1.6-0.7-2.7-1s-2.2-0.6-3.4-1
			c-1.6-0.5-3-1-4.2-1.6s-2.2-1.2-2.9-2c-0.8-0.8-1.3-1.6-1.7-2.6c-0.4-1-0.6-2.1-0.6-3.4c0-1.8,0.3-3.5,1-4.9
			c0.7-1.4,1.6-2.6,2.8-3.6c1.2-1,2.5-1.7,4.1-2.2c1.6-0.5,3.2-0.7,4.9-0.7c1.2,0,2.4,0.1,3.6,0.3c1.2,0.2,2.3,0.5,3.4,0.9
			c1.1,0.4,2.1,0.8,3,1.2c0.9,0.5,1.8,0.9,2.6,1.4L277.1,115z"/>
		<path class="st0" d="M297,140.1c-2.2,0-4.2-0.4-5.9-1.1c-1.7-0.7-3.2-1.7-4.3-2.9c-1.2-1.2-2.1-2.7-2.7-4.3
			c-0.6-1.6-0.9-3.3-0.9-5.1s0.3-3.5,0.9-5.1c0.6-1.6,1.5-3,2.7-4.3s2.6-2.2,4.3-2.9c1.7-0.7,3.7-1.1,5.9-1.1c2.2,0,4.1,0.4,5.8,1.1
			c1.7,0.7,3.1,1.7,4.3,2.9s2.1,2.7,2.7,4.3c0.6,1.6,0.9,3.3,0.9,5.1s-0.3,3.5-0.9,5.1c-0.6,1.6-1.5,3-2.7,4.3
			c-1.2,1.2-2.6,2.2-4.3,2.9C301.2,139.7,299.2,140.1,297,140.1z M291.3,126.7c0,2,0.5,3.7,1.6,4.9c1.1,1.2,2.5,1.8,4.1,1.8
			c0.8,0,1.6-0.2,2.3-0.5c0.7-0.3,1.3-0.8,1.8-1.4s0.9-1.3,1.2-2.1c0.3-0.8,0.4-1.7,0.4-2.7c0-2-0.5-3.7-1.6-4.9
			c-1.1-1.2-2.4-1.8-4.1-1.8c-0.8,0-1.6,0.2-2.3,0.5c-0.7,0.3-1.3,0.8-1.8,1.4c-0.5,0.6-0.9,1.3-1.2,2.1
			C291.4,124.8,291.3,125.8,291.3,126.7z"/>
		<path class="st0" d="M313.6,103.8h7.9v26.7c0,2,0.8,2.9,2.5,2.9c0.4,0,0.8-0.1,1.3-0.2c0.5-0.1,0.9-0.3,1.3-0.5l1,5.9
			c-1,0.5-2.1,0.8-3.4,1.1c-1.3,0.3-2.5,0.4-3.6,0.4c-2.3,0-4-0.6-5.2-1.8c-1.2-1.2-1.8-2.9-1.8-5.1V103.8z"/>
	</g>
</g>
</svg>
