<svg xmlns="http://www.w3.org/2000/svg" viewBox="0 0 151.3 247.86"><defs><style>.cls-1{fill:#fff;}</style></defs><title>logo-mpds-blanco</title><g id="Capa_2" data-name="Capa 2"><g id="Capa_1-2" data-name="Capa 1"><path class="cls-1" d="M126.58,89.46A56.21,56.21,0,0,0,87.67,0a87.61,87.61,0,0,1,26.15,25C128.67,46.33,132.85,71,126.58,89.46Z"/><path class="cls-1" d="M113.7,38.08a56.2,56.2,0,0,0-96.92-11A87.6,87.6,0,0,1,51.46,16.88C77.4,14.7,100.85,23.42,113.7,38.08Z"/><path class="cls-1" d="M62.77,23.54A56.22,56.22,0,0,0,4.75,102a87.56,87.56,0,0,1,8.54-35.12C24.37,43.3,43.65,27.35,62.77,23.54Z"/><path class="cls-1" d="M24.71,60.39a56.21,56.21,0,0,0,38.91,89.45,87.7,87.7,0,0,1-26.14-25C22.63,103.51,18.45,78.85,24.71,60.39Z"/><path class="cls-1" d="M37.59,111.76a56.22,56.22,0,0,0,96.93,11A87.59,87.59,0,0,1,99.84,133C73.9,135.14,50.45,126.42,37.59,111.76Z"/><path class="cls-1" d="M88.53,126.3a56.21,56.21,0,0,0,58-78.42A87.66,87.66,0,0,1,138,83C126.92,106.54,107.65,122.49,88.53,126.3Z"/><path class="cls-1" d="M51,184.63a1.24,1.24,0,0,1-.92-.38,1.26,1.26,0,0,1-.38-.92V166.4a1.3,1.3,0,0,1,2.45-.6L60,181.48h-.8l7.62-15.68a1.29,1.29,0,0,1,2.45.6v16.93a1.23,1.23,0,0,1-.39.92,1.27,1.27,0,0,1-.91.38,1.24,1.24,0,0,1-.92-.38,1.26,1.26,0,0,1-.38-.92V170l.5-.12-6.55,13.35a1.29,1.29,0,0,1-1.12.65,1.25,1.25,0,0,1-1.2-.78l-6.48-13,.5-.13v13.33a1.25,1.25,0,0,1-.37.92A1.27,1.27,0,0,1,51,184.63Z"/><path class="cls-1" d="M79.74,184.73a6,6,0,0,1-3.28-.92,6.47,6.47,0,0,1-2.28-2.47,7.35,7.35,0,0,1-.84-3.54,7,7,0,0,1,.91-3.55,6.81,6.81,0,0,1,2.48-2.49,7.21,7.21,0,0,1,7,0,6.83,6.83,0,0,1,2.46,2.49,7,7,0,0,1,.92,3.55h-1a7.35,7.35,0,0,1-.84,3.54A6.47,6.47,0,0,1,83,183.81,6,6,0,0,1,79.74,184.73Zm.5-2.25a4.28,4.28,0,0,0,3.85-2.29,5,5,0,0,0,.57-2.39,5,5,0,0,0-.57-2.41,4.38,4.38,0,0,0-7.71,0,4.92,4.92,0,0,0-.59,2.41,4.87,4.87,0,0,0,.59,2.39,4.37,4.37,0,0,0,3.86,2.29Zm5.6,2.17a1.23,1.23,0,0,1-.91-.36,1.24,1.24,0,0,1-.36-.91v-3.83L85,176.9l2.08.9v5.58a1.25,1.25,0,0,1-.37.91A1.23,1.23,0,0,1,85.84,184.65Z"/><path class="cls-1" d="M94.16,184.63a3.31,3.31,0,0,1-2-.6,4.07,4.07,0,0,1-1.32-1.64,5.63,5.63,0,0,1-.48-2.39V166.35a1.21,1.21,0,0,1,1.25-1.25,1.26,1.26,0,0,1,.91.35,1.25,1.25,0,0,1,.34.9V180a2.94,2.94,0,0,0,.36,1.53,1,1,0,0,0,.89.6h.63a1,1,0,0,1,.81.35,1.28,1.28,0,0,1,.31.9,1.08,1.08,0,0,1-.47.9,2.06,2.06,0,0,1-1.23.35Z"/><path class="cls-1" d="M101.66,184.63a3.31,3.31,0,0,1-2-.6,4.07,4.07,0,0,1-1.32-1.64,5.63,5.63,0,0,1-.48-2.39V166.35a1.2,1.2,0,0,1,1.25-1.25,1.2,1.2,0,0,1,1.25,1.25V180a3,3,0,0,0,.35,1.53,1,1,0,0,0,.9.6h.63a1,1,0,0,1,.81.35,1.28,1.28,0,0,1,.31.9,1.08,1.08,0,0,1-.47.9,2.06,2.06,0,0,1-1.23.35Z"/><path class="cls-1" d="M27.21,218.61a2,2,0,0,1-2-2V190a2,2,0,0,1,.59-1.47,2,2,0,0,1,1.45-.57h7.85a10.42,10.42,0,0,1,5.22,1.3,9.21,9.21,0,0,1,3.55,3.59,10.69,10.69,0,0,1,1.27,5.28,10.11,10.11,0,0,1-1.27,5.1,9.09,9.09,0,0,1-3.55,3.49A10.61,10.61,0,0,1,35.06,208H29.25v8.59a2,2,0,0,1-.57,1.45A2,2,0,0,1,27.21,218.61Zm2-14.4h5.81a6.25,6.25,0,0,0,3.18-.79,5.69,5.69,0,0,0,2.15-2.15,6.18,6.18,0,0,0,.79-3.14,6.74,6.74,0,0,0-.79-3.32,5.82,5.82,0,0,0-2.15-2.25,6.08,6.08,0,0,0-3.18-.83H29.25Z"/><path class="cls-1" d="M54.32,218.61a5.23,5.23,0,0,1-3.06-.94,6.32,6.32,0,0,1-2.08-2.57,9.06,9.06,0,0,1-.74-3.75V189.93a2,2,0,1,1,3.92,0v21.42a4.62,4.62,0,0,0,.55,2.39,1.63,1.63,0,0,0,1.41.95h1a1.65,1.65,0,0,1,1.28.54,2,2,0,0,1,.49,1.42,1.69,1.69,0,0,1-.75,1.41,3.1,3.1,0,0,1-1.92.55Z"/><path class="cls-1" d="M68.76,218.77a9.42,9.42,0,0,1-5.14-1.44A10.25,10.25,0,0,1,60,213.45a11.66,11.66,0,0,1-1.31-5.55,10.82,10.82,0,0,1,1.43-5.57A10.62,10.62,0,0,1,64,198.42,10.81,10.81,0,0,1,69.55,197a10.56,10.56,0,0,1,9.36,5.34,10.92,10.92,0,0,1,1.43,5.57H78.81a11.55,11.55,0,0,1-1.32,5.55,10.1,10.1,0,0,1-3.59,3.88A9.39,9.39,0,0,1,68.76,218.77Zm.79-3.54a6.63,6.63,0,0,0,3.57-1,6.8,6.8,0,0,0,2.47-2.63,7.75,7.75,0,0,0,.9-3.74,7.83,7.83,0,0,0-.9-3.79,6.87,6.87,0,0,0-2.47-2.63,7.08,7.08,0,0,0-7.12,0,6.9,6.9,0,0,0-2.51,2.63,7.63,7.63,0,0,0-.93,3.79,7.55,7.55,0,0,0,.93,3.74A6.83,6.83,0,0,0,66,214.27,6.64,6.64,0,0,0,69.55,215.23Zm8.79,3.42a2,2,0,0,1-1.44-.57,2,2,0,0,1-.56-1.43v-6l.74-4.16,3.26,1.42v8.75a1.95,1.95,0,0,1-2,2Z"/><path class="cls-1" d="M86.77,200.83a1.84,1.84,0,1,1,0-3.68h13.38a1.84,1.84,0,1,1,0,3.68Zm.39,17.78a1.85,1.85,0,0,1,0-3.69h13.38a1.85,1.85,0,1,1,0,3.69Zm1.18-.75-2.67-2.35L99,197.89l2.63,2.36Z"/><path class="cls-1" d="M115.65,218.77a9.42,9.42,0,0,1-5.14-1.44,10.17,10.17,0,0,1-3.59-3.88,11.55,11.55,0,0,1-1.31-5.55,10.82,10.82,0,0,1,1.43-5.57,10.62,10.62,0,0,1,3.88-3.91,10.81,10.81,0,0,1,5.52-1.43,10.52,10.52,0,0,1,9.35,5.34,10.83,10.83,0,0,1,1.44,5.57H125.7a11.55,11.55,0,0,1-1.32,5.55,10.17,10.17,0,0,1-3.59,3.88A9.42,9.42,0,0,1,115.65,218.77Zm.79-3.54a6.63,6.63,0,0,0,3.57-1,6.8,6.8,0,0,0,2.47-2.63,7.75,7.75,0,0,0,.9-3.74,7.83,7.83,0,0,0-.9-3.79,6.87,6.87,0,0,0-2.47-2.63,7.1,7.1,0,0,0-7.13,0,7.05,7.05,0,0,0-2.51,2.63,7.73,7.73,0,0,0-.92,3.79,7.65,7.65,0,0,0,.92,3.74,7,7,0,0,0,2.51,2.63A6.67,6.67,0,0,0,116.44,215.23Zm8.79,3.42a1.95,1.95,0,0,1-2-2v-6l.75-4.16,3.26,1.42v8.75a1.95,1.95,0,0,1-2,2Z"/><path class="cls-1" d="M30.81,247.67a8.43,8.43,0,0,1-4.32-1.12,8.34,8.34,0,0,1-3-3.06,8.5,8.5,0,0,1-1.12-4.36,9,9,0,0,1,1-4.35,8,8,0,0,1,2.81-3.05,7.65,7.65,0,0,1,10,1.68v-8.3a1.51,1.51,0,0,1,.45-1.14,1.7,1.7,0,0,1,2.26,0,1.58,1.58,0,0,1,.43,1.14v14a8.6,8.6,0,0,1-1.12,4.36,8.27,8.27,0,0,1-7.34,4.18Zm0-2.76a5.18,5.18,0,0,0,2.8-.76,5.3,5.3,0,0,0,1.94-2.07,6.18,6.18,0,0,0,.71-3,6,6,0,0,0-.71-2.95,5.32,5.32,0,0,0-1.94-2.05,5.56,5.56,0,0,0-5.58,0,5.47,5.47,0,0,0-2,2.05,5.94,5.94,0,0,0-.72,2.95,6.08,6.08,0,0,0,.72,3,5.45,5.45,0,0,0,2,2.07A5.21,5.21,0,0,0,30.81,244.91Z"/><path class="cls-1" d="M52.7,247.67a9.2,9.2,0,0,1-4.53-1.09,8,8,0,0,1-3.11-3,8.66,8.66,0,0,1-1.12-4.41A9.07,9.07,0,0,1,45,234.71a7.8,7.8,0,0,1,2.94-3,8.36,8.36,0,0,1,4.3-1.09,7.68,7.68,0,0,1,4.12,1.06A6.89,6.89,0,0,1,59,234.59a9.74,9.74,0,0,1,.91,4.29,1.32,1.32,0,0,1-.4,1,1.4,1.4,0,0,1-1,.38H46.09v-2.46h12.3l-1.26.86a6.73,6.73,0,0,0-.61-2.75,4.49,4.49,0,0,0-4.28-2.63,5.65,5.65,0,0,0-3,.77,5,5,0,0,0-1.89,2.11,6.88,6.88,0,0,0-.64,3,5.79,5.79,0,0,0,.77,3,5.6,5.6,0,0,0,2.12,2.09,6.17,6.17,0,0,0,3.1.77,6,6,0,0,0,2-.35,6.18,6.18,0,0,0,1.61-.82,1.78,1.78,0,0,1,1-.35,1.38,1.38,0,0,1,.94.32,1.5,1.5,0,0,1,.55,1,1.1,1.1,0,0,1-.49,1,8.72,8.72,0,0,1-2.6,1.35A9.25,9.25,0,0,1,52.7,247.67Z"/><path class="cls-1" d="M67.89,247.55a4.09,4.09,0,0,1-2.4-.74,4.86,4.86,0,0,1-1.63-2,7,7,0,0,1-.58-2.94V225.08a1.47,1.47,0,0,1,1.54-1.54,1.46,1.46,0,0,1,1.1.43,1.5,1.5,0,0,1,.43,1.11v16.78a3.76,3.76,0,0,0,.43,1.88,1.28,1.28,0,0,0,1.11.74h.77a1.27,1.27,0,0,1,1,.43A1.6,1.6,0,0,1,70,246a1.32,1.32,0,0,1-.58,1.11,2.46,2.46,0,0,1-1.51.43Z"/><path class="cls-1" d="M90.06,247.86a11.35,11.35,0,0,1-3.75-.62,9.67,9.67,0,0,1-3.11-1.72A6.84,6.84,0,0,1,81.26,243a1.22,1.22,0,0,1,0-1.2,1.54,1.54,0,0,1,1.09-.71,1.56,1.56,0,0,1,1.09.17,2,2,0,0,1,.82.88,3.94,3.94,0,0,0,1.21,1.41,7.12,7.12,0,0,0,2,1,8.12,8.12,0,0,0,2.53.4,8,8,0,0,0,2.72-.46,4.91,4.91,0,0,0,2-1.34,3.18,3.18,0,0,0,.77-2.17,4.07,4.07,0,0,0-1.28-2.92,6.81,6.81,0,0,0-4.19-1.6,10.49,10.49,0,0,1-6-2.24,5.9,5.9,0,0,1-2.18-4.64,5.33,5.33,0,0,1,1.14-3.45A7,7,0,0,1,86.14,224a12.25,12.25,0,0,1,4.35-.74,9.26,9.26,0,0,1,3.27.53,7.61,7.61,0,0,1,2.44,1.44A9.42,9.42,0,0,1,98,227.41a1.91,1.91,0,0,1,.35,1.28,1.27,1.27,0,0,1-.6.94,1.47,1.47,0,0,1-1.26.15,1.7,1.7,0,0,1-1-.8,5.59,5.59,0,0,0-1.2-1.5,5.26,5.26,0,0,0-1.66-1,6.4,6.4,0,0,0-2.25-.36,7.36,7.36,0,0,0-3.81.85A2.9,2.9,0,0,0,85,229.69a3.57,3.57,0,0,0,.48,1.77,3.85,3.85,0,0,0,1.75,1.46,11.64,11.64,0,0,0,3.68.86,9.62,9.62,0,0,1,5.7,2.23,6.31,6.31,0,0,1,2,4.9,6.13,6.13,0,0,1-.72,3A6.61,6.61,0,0,1,96,246.12a8.48,8.48,0,0,1-2.76,1.31A12.3,12.3,0,0,1,90.06,247.86Z"/><path class="cls-1" d="M110.9,247.67a8.68,8.68,0,0,1-4.4-1.09,7.86,7.86,0,0,1-3-3,8.75,8.75,0,0,1-1.1-4.41,8.87,8.87,0,0,1,1.1-4.45,7.86,7.86,0,0,1,3-3,8.68,8.68,0,0,1,4.4-1.09,8.58,8.58,0,0,1,4.36,1.09,8,8,0,0,1,3,3,9.63,9.63,0,0,1,0,8.86,7.83,7.83,0,0,1-3,3A8.7,8.7,0,0,1,110.9,247.67Zm0-2.76a5.43,5.43,0,0,0,2.83-.74,5.14,5.14,0,0,0,1.92-2,6.21,6.21,0,0,0,.69-3,6.32,6.32,0,0,0-.69-3,5.1,5.1,0,0,0-1.92-2,5.43,5.43,0,0,0-7.6,2,6.21,6.21,0,0,0-.7,3,6.1,6.1,0,0,0,.7,3,5.33,5.33,0,0,0,1.94,2A5.4,5.4,0,0,0,110.9,244.91Z"/><path class="cls-1" d="M128,247.55a4.09,4.09,0,0,1-2.4-.74,4.84,4.84,0,0,1-1.62-2,7,7,0,0,1-.59-2.94V225.08a1.57,1.57,0,0,1,2.65-1.11,1.54,1.54,0,0,1,.43,1.11v16.78a3.66,3.66,0,0,0,.43,1.88,1.26,1.26,0,0,0,1.1.74h.77a1.27,1.27,0,0,1,1,.43,1.55,1.55,0,0,1,.38,1.1,1.32,1.32,0,0,1-.58,1.11,2.46,2.46,0,0,1-1.51.43Z"/></g></g></svg>