<svg xmlns="http://www.w3.org/2000/svg" viewBox="0 0 347.37 149.84"><defs><style>.cls-1{fill:#c72463;}.cls-2{fill:#1cb48d;}.cls-3{fill:#f5c73d;}.cls-4{fill:#fff;}</style></defs><title>logo-mpds</title><g id="Capa_2" data-name="Capa 2"><g id="Capa_1-2" data-name="Capa 1"><path class="cls-1" d="M126.58,89.46A56.21,56.21,0,0,0,87.67,0a87.61,87.61,0,0,1,26.15,25C128.67,46.33,132.85,71,126.58,89.46Z"/><path class="cls-2" d="M113.7,38.08a56.2,56.2,0,0,0-96.92-11A87.6,87.6,0,0,1,51.46,16.88C77.4,14.7,100.85,23.42,113.7,38.08Z"/><path class="cls-3" d="M62.77,23.54A56.22,56.22,0,0,0,4.75,102a87.56,87.56,0,0,1,8.54-35.12C24.37,43.3,43.65,27.35,62.77,23.54Z"/><path class="cls-1" d="M24.71,60.39a56.21,56.21,0,0,0,38.91,89.45,87.7,87.7,0,0,1-26.14-25C22.63,103.51,18.45,78.85,24.71,60.39Z"/><path class="cls-2" d="M37.59,111.76a56.22,56.22,0,0,0,96.93,11A87.59,87.59,0,0,1,99.84,133C73.9,135.14,50.45,126.42,37.59,111.76Z"/><path class="cls-3" d="M88.53,126.3a56.21,56.21,0,0,0,58-78.42A87.66,87.66,0,0,1,138,83C126.92,106.54,107.65,122.49,88.53,126.3Z"/><path class="cls-4" d="M174.65,39.54a2.08,2.08,0,0,1-1.51-.61,2,2,0,0,1-.61-1.51V9.83a2,2,0,0,1,.61-1.53,2.15,2.15,0,0,1,3.38.55L189.28,34.4H188L200.4,8.85a2.15,2.15,0,0,1,3.38-.55,2,2,0,0,1,.62,1.53V37.42a2,2,0,0,1-.64,1.51,2.14,2.14,0,0,1-3,0,2,2,0,0,1-.61-1.51V15.7l.81-.21L190.3,37.25a2.12,2.12,0,0,1-1.84,1.06,2.05,2.05,0,0,1-2-1.26L176,15.9l.81-.2V37.42a2.08,2.08,0,0,1-2.11,2.12Z"/><path class="cls-4" d="M221.43,39.7a9.85,9.85,0,0,1-5.34-1.49,10.58,10.58,0,0,1-3.73-4A12,12,0,0,1,211,28.41a11.27,11.27,0,0,1,1.49-5.79,11,11,0,0,1,4-4.05,11.18,11.18,0,0,1,5.73-1.49A11,11,0,0,1,232,22.62a11.37,11.37,0,0,1,1.48,5.79h-1.59a12,12,0,0,1-1.36,5.77,10.5,10.5,0,0,1-3.73,4A9.85,9.85,0,0,1,221.43,39.7Zm.82-3.67a6.89,6.89,0,0,0,3.7-1,7,7,0,0,0,2.57-2.73,8,8,0,0,0,.94-3.89,8,8,0,0,0-.94-3.93A7,7,0,0,0,226,21.75a7.33,7.33,0,0,0-7.39,0A7.14,7.14,0,0,0,216,24.48a8.44,8.44,0,0,0,0,7.82A7.14,7.14,0,0,0,218.56,35,7,7,0,0,0,222.25,36Zm9.13,3.55a2,2,0,0,1-1.49-.59,2,2,0,0,1-.59-1.49V31.26l.77-4.32,3.38,1.47V37.5a2,2,0,0,1-2.07,2.08Z"/><path class="cls-4" d="M245,39.54a5.38,5.38,0,0,1-3.18-1,6.37,6.37,0,0,1-2.16-2.67,9.22,9.22,0,0,1-.78-3.89V9.75a2,2,0,1,1,4.08,0V32a4.87,4.87,0,0,0,.57,2.48,1.67,1.67,0,0,0,1.47,1h1a1.7,1.7,0,0,1,1.33.57,2.12,2.12,0,0,1,.51,1.47A1.75,1.75,0,0,1,247,39a3.26,3.26,0,0,1-2,.57Z"/><path class="cls-4" d="M257.17,39.54a5.42,5.42,0,0,1-3.18-1,6.53,6.53,0,0,1-2.16-2.67,9.38,9.38,0,0,1-.77-3.89V9.75a2,2,0,1,1,4.07,0V32a4.87,4.87,0,0,0,.57,2.48,1.67,1.67,0,0,0,1.47,1h1a1.71,1.71,0,0,1,1.33.57,2.16,2.16,0,0,1,.5,1.47,1.74,1.74,0,0,1-.77,1.47,3.29,3.29,0,0,1-2,.57Z"/><path class="cls-4" d="M178.17,94.93a3.28,3.28,0,0,1-3.32-3.32V48.3a3.19,3.19,0,0,1,1-2.4,3.3,3.3,0,0,1,2.36-.92H191a16.86,16.86,0,0,1,8.5,2.11,14.87,14.87,0,0,1,5.79,5.85,17.35,17.35,0,0,1,2.08,8.6,16.44,16.44,0,0,1-2.08,8.32,14.61,14.61,0,0,1-5.79,5.69,17.25,17.25,0,0,1-8.5,2H181.5v14a3.27,3.27,0,0,1-.93,2.36A3.19,3.19,0,0,1,178.17,94.93Zm3.33-23.47H191a10.31,10.31,0,0,0,5.18-1.28,9.37,9.37,0,0,0,3.52-3.52A10.16,10.16,0,0,0,201,61.54a11.11,11.11,0,0,0-1.28-5.4,9.65,9.65,0,0,0-3.52-3.68A9.85,9.85,0,0,0,191,51.12H181.5Z"/><path class="cls-4" d="M222.37,94.93a8.45,8.45,0,0,1-5-1.53A10.23,10.23,0,0,1,214,89.21a14.55,14.55,0,0,1-1.21-6.11V48.17a3.2,3.2,0,1,1,6.39,0V83.1a7.61,7.61,0,0,0,.9,3.9,2.65,2.65,0,0,0,2.3,1.54H224a2.64,2.64,0,0,1,2.08.89,3.35,3.35,0,0,1,.8,2.3A2.76,2.76,0,0,1,225.63,94a5.18,5.18,0,0,1-3.13.89Z"/><path class="cls-4" d="M245.91,95.19a15.38,15.38,0,0,1-8.38-2.34,16.53,16.53,0,0,1-5.85-6.33,18.81,18.81,0,0,1-2.14-9,17.72,17.72,0,0,1,2.33-9.08A17.34,17.34,0,0,1,238.2,62a17.63,17.63,0,0,1,24.25,6.37,17.81,17.81,0,0,1,2.33,9.08h-2.49a18.82,18.82,0,0,1-2.15,9,16.53,16.53,0,0,1-5.85,6.33A15.38,15.38,0,0,1,245.91,95.19Zm1.28-5.76A10.87,10.87,0,0,0,253,87.86a11.07,11.07,0,0,0,4-4.28,13.56,13.56,0,0,0,0-12.28A11.17,11.17,0,0,0,253,67a11.52,11.52,0,0,0-11.61,0,11.32,11.32,0,0,0-4.09,4.29,13.24,13.24,0,0,0,0,12.28,11.22,11.22,0,0,0,4.09,4.28A10.94,10.94,0,0,0,247.19,89.43ZM261.52,95a3.16,3.16,0,0,1-3.26-3.27V82l1.21-6.78,5.31,2.3V91.73A3.18,3.18,0,0,1,261.52,95Z"/><path class="cls-4" d="M275.27,66a2.66,2.66,0,0,1-3-3,2.66,2.66,0,0,1,3-3h21.81a2.67,2.67,0,0,1,3,3,2.67,2.67,0,0,1-3,3Zm.64,29q-3,0-3-3t3-3h21.81a2.66,2.66,0,0,1,3,3c0,2-1,3-3,3Zm1.92-1.21-4.35-3.84,21.75-28.72L299.51,65Z"/><path class="cls-4" d="M322.35,95.19A15.35,15.35,0,0,1,314,92.85a16.38,16.38,0,0,1-5.85-6.33,18.82,18.82,0,0,1-2.15-9,17.72,17.72,0,0,1,2.34-9.08A17.19,17.19,0,0,1,314.64,62a18.43,18.43,0,0,1,17.94,0,17.26,17.26,0,0,1,6.3,6.37,17.72,17.72,0,0,1,2.34,9.08h-2.5a18.81,18.81,0,0,1-2.14,9,16.53,16.53,0,0,1-5.85,6.33A15.4,15.4,0,0,1,322.35,95.19Zm1.28-5.76a10.89,10.89,0,0,0,5.82-1.57,11.15,11.15,0,0,0,4-4.28,13.56,13.56,0,0,0,0-12.28,11.25,11.25,0,0,0-4-4.29,11.52,11.52,0,0,0-11.61,0,11.42,11.42,0,0,0-4.1,4.29,13.32,13.32,0,0,0,0,12.28,11.32,11.32,0,0,0,4.1,4.28A10.91,10.91,0,0,0,323.63,89.43ZM338,95a3.18,3.18,0,0,1-3.26-3.27V82l1.22-6.78,5.31,2.3V91.73A3.18,3.18,0,0,1,338,95Z"/><path class="cls-4" d="M185.39,142.31a13.69,13.69,0,0,1-7-1.83,13.54,13.54,0,0,1-5-5,14,14,0,0,1-1.83-7.12,14.76,14.76,0,0,1,1.68-7.09,13,13,0,0,1,4.58-5,12.08,12.08,0,0,1,6.57-1.83,12.22,12.22,0,0,1,5.46,1.23,12.4,12.4,0,0,1,4.21,3.33V105.53a2.46,2.46,0,0,1,.73-1.86,2.77,2.77,0,0,1,3.68,0,2.51,2.51,0,0,1,.7,1.86v22.85a14,14,0,0,1-1.83,7.12,13.48,13.48,0,0,1-12,6.81Zm0-4.51a8.52,8.52,0,0,0,7.72-4.61,10,10,0,0,0,1.15-4.81,9.83,9.83,0,0,0-1.15-4.81,8.8,8.8,0,0,0-3.16-3.33,9,9,0,0,0-9.09,0,8.85,8.85,0,0,0-3.21,3.33,9.63,9.63,0,0,0-1.18,4.81,9.79,9.79,0,0,0,1.18,4.81,8.67,8.67,0,0,0,7.74,4.61Z"/><path class="cls-4" d="M221.07,142.31a15,15,0,0,1-7.39-1.78,13,13,0,0,1-5.06-4.91,14,14,0,0,1-1.83-7.19,14.77,14.77,0,0,1,1.73-7.24,12.61,12.61,0,0,1,4.78-4.91,13.67,13.67,0,0,1,7-1.78,12.49,12.49,0,0,1,6.72,1.73,11.22,11.22,0,0,1,4.28,4.76,15.69,15.69,0,0,1,1.48,7,2.13,2.13,0,0,1-.65,1.58,2.3,2.3,0,0,1-1.66.62H210.3v-4h20l-2.05,1.4a10.77,10.77,0,0,0-1-4.49,7.65,7.65,0,0,0-2.71-3.13,7.58,7.58,0,0,0-4.26-1.15,9.21,9.21,0,0,0-4.89,1.25,8.12,8.12,0,0,0-3.08,3.43,11.26,11.26,0,0,0-1,4.94,9.61,9.61,0,0,0,1.25,4.91,9.14,9.14,0,0,0,3.46,3.41,10,10,0,0,0,5.06,1.25,9.64,9.64,0,0,0,3.19-.57,10.21,10.21,0,0,0,2.63-1.33,2.84,2.84,0,0,1,1.63-.58,2.19,2.19,0,0,1,1.52.53,2.4,2.4,0,0,1,.91,1.65,1.81,1.81,0,0,1-.81,1.56,13.81,13.81,0,0,1-4.23,2.2A15.11,15.11,0,0,1,221.07,142.31Z"/><path class="cls-4" d="M245.83,142.11a6.63,6.63,0,0,1-3.91-1.2,8,8,0,0,1-2.66-3.28,11.47,11.47,0,0,1-.95-4.79V105.48a2.55,2.55,0,0,1,4.31-1.81,2.44,2.44,0,0,1,.7,1.81v27.36a6,6,0,0,0,.71,3.06,2,2,0,0,0,1.8,1.2h1.25a2.11,2.11,0,0,1,1.63.7,2.61,2.61,0,0,1,.63,1.81,2.16,2.16,0,0,1-1,1.8,4,4,0,0,1-2.46.7Z"/><path class="cls-4" d="M282,142.61a18.6,18.6,0,0,1-6.11-1,15.81,15.81,0,0,1-5.06-2.8,11.1,11.1,0,0,1-3.16-4.16,2,2,0,0,1,0-2,2.75,2.75,0,0,1,3.55-.88,3.08,3.08,0,0,1,1.33,1.43,6.42,6.42,0,0,0,2,2.31,11.33,11.33,0,0,0,3.33,1.7,13.42,13.42,0,0,0,8.55-.1,7.92,7.92,0,0,0,3.28-2.18,5.14,5.14,0,0,0,1.26-3.53,6.63,6.63,0,0,0-2.08-4.76c-1.39-1.41-3.67-2.27-6.85-2.61q-6.21-.6-9.77-3.66a9.6,9.6,0,0,1-3.56-7.57,8.66,8.66,0,0,1,1.86-5.61,11.43,11.43,0,0,1,5-3.51,20,20,0,0,1,7.1-1.2,15.17,15.17,0,0,1,5.33.85,12.81,12.81,0,0,1,4,2.36,15.34,15.34,0,0,1,2.95,3.56,3.12,3.12,0,0,1,.58,2.08,2,2,0,0,1-1,1.52,2.29,2.29,0,0,1-2.05.25,2.79,2.79,0,0,1-1.66-1.3,8.79,8.79,0,0,0-1.95-2.45,8.56,8.56,0,0,0-2.71-1.58,10.32,10.32,0,0,0-3.65-.58,12.11,12.11,0,0,0-6.22,1.38,4.71,4.71,0,0,0-2.51,4.38,5.78,5.78,0,0,0,.78,2.89,6.24,6.24,0,0,0,2.86,2.38,18.63,18.63,0,0,0,6,1.4q6,.6,9.29,3.63a10.29,10.29,0,0,1,3.34,8,10.05,10.05,0,0,1-1.18,5,10.9,10.9,0,0,1-3.16,3.53,14.11,14.11,0,0,1-4.51,2.13A19.43,19.43,0,0,1,282,142.61Z"/><path class="cls-4" d="M315.94,142.31a14.11,14.11,0,0,1-7.16-1.78,12.81,12.81,0,0,1-4.89-4.91,15.51,15.51,0,0,1,0-14.43,12.81,12.81,0,0,1,4.89-4.91,15.21,15.21,0,0,1,14.28,0,12.88,12.88,0,0,1,4.89,4.91,15.59,15.59,0,0,1,0,14.43,12.67,12.67,0,0,1-4.86,4.91A14.13,14.13,0,0,1,315.94,142.31Zm0-4.51a8.78,8.78,0,0,0,4.61-1.2,8.41,8.41,0,0,0,3.14-3.31,10.13,10.13,0,0,0,1.12-4.86,10.31,10.31,0,0,0-1.12-4.89,8.4,8.4,0,0,0-3.14-3.33,9.46,9.46,0,0,0-9.22,0,8.49,8.49,0,0,0-3.15,3.33,10.1,10.1,0,0,0-1.16,4.89,9.92,9.92,0,0,0,1.16,4.86,8.51,8.51,0,0,0,3.15,3.31A8.83,8.83,0,0,0,315.94,137.8Z"/><path class="cls-4" d="M343.86,142.11a6.61,6.61,0,0,1-3.91-1.2,8,8,0,0,1-2.66-3.28,11.47,11.47,0,0,1-1-4.79V105.48a2.44,2.44,0,0,1,.7-1.81,2.68,2.68,0,0,1,3.61,0,2.44,2.44,0,0,1,.7,1.81v27.36a6,6,0,0,0,.7,3.06,2.07,2.07,0,0,0,1.81,1.2h1.25a2.11,2.11,0,0,1,1.63.7,2.61,2.61,0,0,1,.63,1.81,2.15,2.15,0,0,1-1,1.8,4,4,0,0,1-2.45.7Z"/></g></g></svg>